Pontano-Light.ufo
<glyph name="exclam" format="1">
  <advance width="428"/>
  <unicode hex="0021"/>
  <outline>
    <contour>
      <point x="151" y="0" type="line"/>
      <point x="288" y="0" type="line"/>
      <point x="288" y="173" type="line"/>
      <point x="151" y="173" type="line"/>
    </contour>
    <contour>
      <point x="192" y="323" type="line"/>
      <point x="248" y="323" type="line"/>
      <point x="305" y="1464" type="line"/>
      <point x="141" y="1464" type="line"/>
    </contour>
  </outline>
</glyph>
<glyph name="quotedbl" format="1">
  <advance width="510"/>
  <unicode hex="0022"/>
  <outline>
    <contour>
      <point x="103" y="1000" type="line"/>
      <point x="149" y="1000" type="line"/>
      <point x="188" y="1464" type="line"/>
      <point x="63" y="1464" type="line"/>
    </contour>
    <contour>
      <point x="356" y="1000" type="line"/>
      <point x="403" y="1000" type="line"/>
      <point x="442" y="1464" type="line"/>
      <point x="316" y="1464" type="line"/>
    </contour>
  </outline>
</glyph>
<glyph name="dollar" format="1">
  <advance width="1216"/>
  <unicode hex="0024"/>
  <outline>
    <contour>
      <point x="603" y="-204" type="line"/>
      <point x="688" y="-204" type="line"/>
      <point x="688" y="1672" type="line"/>
      <point x="603" y="1672" type="line"/>
    </contour>
    <component base="S"/>
  </outline>
</glyph>
<glyph name="ampersand" format="1">
  <advance width="1430"/>
  <unicode hex="0026"/>
  <outline>
    <contour>
      <point x="1285" y="-23" type="line"/>
      <point x="1367" y="58" type="line"/>
      <point x="544" y="979" type="line" smooth="yes"/>
      <point x="474" y="1059"/>
      <point x="451" y="1141"/>
      <point x="454" y="1210" type="curve" smooth="yes"/>
      <point x="460" y="1319"/>
      <point x="568" y="1380"/>
      <point x="678" y="1380" type="curve" smooth="yes"/>
      <point x="783" y="1380"/>
      <point x="888" y="1321"/>
      <point x="887" y="1205" type="curve" smooth="yes"/>
      <point x="886" y="1113"/>
      <point x="815" y="996"/>
      <point x="550" y="890" type="curve" smooth="yes"/>
      <point x="220" y="757"/>
      <point x="98" y="610"/>
      <point x="98" y="408" type="curve" smooth="yes"/>
      <point x="98" y="169"/>
      <point x="292" y="-25"/>
      <point x="582" y="-25" type="curve" smooth="yes"/>
      <point x="901" y="-25"/>
      <point x="1249" y="187"/>
      <point x="1309" y="783" type="curve"/>
      <point x="1192" y="801" type="line"/>
      <point x="1157" y="409"/>
      <point x="952" y="87"/>
      <point x="602" y="87" type="curve" smooth="yes"/>
      <point x="345" y="87"/>
      <point x="236" y="252"/>
      <point x="237" y="414" type="curve" smooth="yes"/>
      <point x="237" y="557"/>
      <point x="313" y="668"/>
      <point x="615" y="812" type="curve" smooth="yes"/>
      <point x="804" y="901"/>
      <point x="1009" y="1015"/>
      <point x="1009" y="1211" type="curve" smooth="yes"/>
      <point x="1009" y="1393"/>
      <point x="861" y="1491"/>
      <point x="673" y="1491" type="curve" smooth="yes"/>
      <point x="496" y="1491"/>
      <point x="331" y="1392"/>
      <point x="326" y="1210" type="curve" smooth="yes"/>
      <point x="323" y="1112"/>
      <point x="356" y="1023"/>
      <point x="430" y="939" type="curve" smooth="yes"/>
    </contour>
  </outline>
</glyph>
<glyph name="quotesingle" format="1">
  <advance width="280"/>
  <unicode hex="0027"/>
  <outline>
    <contour>
      <point x="123" y="1000" type="line"/>
      <point x="170" y="1000" type="line"/>
      <point x="209" y="1464" type="line"/>
      <point x="83" y="1464" type="line"/>
    </contour>
  </outline>
</glyph>
<glyph name="plus" format="1">
  <advance width="860"/>
  <unicode hex="002B"/>
  <outline>
    <contour>
      <point x="379" y="350" type="line"/>
      <point x="476" y="350" type="line"/>
      <point x="476" y="675" type="line"/>
      <point x="778" y="675" type="line"/>
      <point x="778" y="770" type="line"/>
      <point x="476" y="770" type="line"/>
      <point x="476" y="1100" type="line"/>
      <point x="379" y="1100" type="line"/>
      <point x="379" y="770" type="line"/>
      <point x="72" y="770" type="line"/>
      <point x="72" y="675" type="line"/>
      <point x="379" y="675" type="line"/>
    </contour>
  </outline>
</glyph>
<glyph name="hyphen" format="1">
  <advance width="724"/>
  <unicode hex="002D"/>
  <outline>
    <contour>
      <point x="100" y="404" type="line"/>
      <point x="600" y="404" type="line"/>
      <point x="600" y="509" type="line"/>
      <point x="100" y="509" type="line"/>
    </contour>
  </outline>
</glyph>
<glyph name="slash" format="1">
  <advance width="592"/>
  <unicode hex="002F"/>
  <outline>
    <contour>
      <point x="147" y="-34" type="line"/>
      <point x="569" y="1508" type="line"/>
      <point x="458" y="1534" type="line"/>
      <point x="43" y="-8" type="line"/>
    </contour>
  </outline>
</glyph>
<glyph name="zero" format="1">
  <advance width="1246"/>
  <unicode hex="0030"/>
  <outline>
    <contour>
      <point x="623" y="87" type="curve" smooth="yes"/>
      <point x="390" y="87"/>
      <point x="266" y="292"/>
      <point x="266" y="724" type="curve" smooth="yes"/>
      <point x="266" y="1156"/>
      <point x="390" y="1378"/>
      <point x="623" y="1378" type="curve" smooth="yes"/>
      <point x="856" y="1378"/>
      <point x="981" y="1156"/>
      <point x="981" y="724" type="curve" smooth="yes"/>
      <point x="981" y="292"/>
      <point x="856" y="87"/>
    </contour>
    <contour>
      <point x="623" y="-24" type="curve" smooth="yes"/>
      <point x="959" y="-24"/>
      <point x="1128" y="262"/>
      <point x="1128" y="724" type="curve" smooth="yes"/>
      <point x="1128" y="1186"/>
      <point x="959" y="1489"/>
      <point x="623" y="1489" type="curve" smooth="yes"/>
      <point x="287" y="1489"/>
      <point x="118" y="1186"/>
      <point x="118" y="724" type="curve" smooth="yes"/>
      <point x="118" y="262"/>
      <point x="287" y="-24"/>
    </contour>
  </outline>
</glyph>
<glyph name="one" format="1">
  <advance width="762"/>
  <unicode hex="0031"/>
  <outline>
    <contour>
      <point x="359" y="0" type="line"/>
      <point x="498" y="0" type="line"/>
      <point x="498" y="1464" type="line"/>
      <point x="375" y="1464" type="line"/>
      <point x="102" y="1345" type="line"/>
      <point x="144" y="1235" type="line"/>
      <point x="359" y="1335" type="line"/>
    </contour>
  </outline>
</glyph>
<glyph name="three" format="1">
  <advance width="1077"/>
  <unicode hex="0033"/>
  <outline>
    <contour>
      <point x="534.988" y="-25.0079" type="curve" smooth="yes"/>
      <point x="836.689" y="-25.0079"/>
      <point x="988.068" y="190.113"/>
      <point x="988.068" y="411.067" type="curve" smooth="yes"/>
      <point x="988.068" y="586.585"/>
      <point x="891.346" y="767.71"/>
      <point x="653" y="814" type="curve"/>
      <point x="841" y="861"/>
      <point x="917" y="1012"/>
      <point x="917" y="1152" type="curve" smooth="yes"/>
      <point x="917" y="1350"/>
      <point x="774" y="1491"/>
      <point x="529" y="1491" type="curve" smooth="yes"/>
      <point x="359" y="1491"/>
      <point x="217" y="1412"/>
      <point x="117" y="1256" type="curve"/>
      <point x="217" y="1195" type="line"/>
      <point x="309" y="1338"/>
      <point x="423" y="1380"/>
      <point x="536" y="1380" type="curve" smooth="yes"/>
      <point x="706" y="1380"/>
      <point x="781" y="1259"/>
      <point x="781" y="1140" type="curve" smooth="yes"/>
      <point x="781" y="1006"/>
      <point x="710" y="861"/>
      <point x="436" y="861" type="curve"/>
      <point x="436" y="754" type="line"/>
      <point x="690.388" y="754"/>
      <point x="847.019" y="656.243"/>
      <point x="847.019" y="400.874" type="curve" smooth="yes"/>
      <point x="847.019" y="237.362"/>
      <point x="742.36" y="88.0064"/>
      <point x="527" y="87" type="curve" smooth="yes"/>
      <point x="370" y="87"/>
      <point x="256" y="178"/>
      <point x="200" y="356" type="curve"/>
      <point x="83" y="316" type="line"/>
      <point x="143.679" y="69.3031"/>
      <point x="344.871" y="-25.0079"/>
    </contour>
  </outline>
</glyph>
<glyph name="five" format="1">
  <advance width="1155"/>
  <unicode hex="0035"/>
  <outline>
    <contour>
      <point x="591" y="-24" type="curve" smooth="yes"/>
      <point x="883" y="-24"/>
      <point x="1073" y="169"/>
      <point x="1073" y="461" type="curve" smooth="yes"/>
      <point x="1073" y="701"/>
      <point x="932" y="928"/>
      <point x="611" y="928" type="curve" smooth="yes"/>
      <point x="531" y="928"/>
      <point x="396" y="903"/>
      <point x="298" y="820" type="curve"/>
      <point x="336" y="818" type="line"/>
      <point x="411" y="1343" type="line"/>
      <point x="960" y="1343" type="line"/>
      <point x="960" y="1464" type="line"/>
      <point x="286" y="1464" type="line"/>
      <point x="190" y="744" type="line"/>
      <point x="279" y="688" type="line"/>
      <point x="375" y="772"/>
      <point x="487" y="814"/>
      <point x="606" y="814" type="curve" smooth="yes"/>
      <point x="825" y="814"/>
      <point x="932" y="635"/>
      <point x="932" y="453" type="curve" smooth="yes"/>
      <point x="932" y="233"/>
      <point x="797" y="87"/>
      <point x="583" y="87" type="curve" smooth="yes"/>
      <point x="435" y="87"/>
      <point x="296" y="188"/>
      <point x="223" y="357" type="curve"/>
      <point x="105" y="309" type="line"/>
      <point x="196" y="77"/>
      <point x="376" y="-24"/>
    </contour>
  </outline>
</glyph>
<glyph name="seven" format="1">
  <advance width="1246"/>
  <unicode hex="0037"/>
  <outline>
    <contour>
      <point x="519" y="-1" type="line"/>
      <point x="1069" y="1357" type="line"/>
      <point x="1069" y="1464" type="line"/>
      <point x="203" y="1464" type="line"/>
      <point x="214" y="1358" type="line"/>
      <point x="925" y="1358" type="line"/>
      <point x="369" y="1" type="line"/>
    </contour>
  </outline>
</glyph>
<glyph name="nine" format="1">
  <advance width="1198"/>
  <unicode hex="0039"/>
  <outline>
    <contour>
      <point x="927" y="649" type="curve"/>
      <point x="914.942" y="290.288"/>
      <point x="774.494" y="85.9062"/>
      <point x="554.264" y="85.9062" type="curve" smooth="yes"/>
      <point x="463.825" y="85.9062"/>
      <point x="368.312" y="115.938"/>
      <point x="285" y="176" type="curve"/>
      <point x="246" y="70" type="line"/>
      <point x="340" y="6"/>
      <point x="467" y="-25"/>
      <point x="565" y="-25" type="curve" smooth="yes"/>
      <point x="864" y="-25"/>
      <point x="1078" y="265"/>
      <point x="1078" y="766" type="curve" smooth="yes"/>
      <point x="1078" y="1214"/>
      <point x="927" y="1491"/>
      <point x="583" y="1491" type="curve" smooth="yes"/>
      <point x="281" y="1491"/>
      <point x="125" y="1230"/>
      <point x="125" y="981" type="curve" smooth="yes"/>
      <point x="125" y="686.207"/>
      <point x="302.495" y="519.398"/>
      <point x="559.97" y="519.398" type="curve" smooth="yes"/>
      <point x="691.477" y="519.398"/>
      <point x="824.061" y="566.434"/>
    </contour>
    <contour>
      <point x="927" y="762" type="line"/>
      <point x="822.076" y="678.489"/>
      <point x="705.408" y="626.543"/>
      <point x="575.059" y="626.543" type="curve" smooth="yes"/>
      <point x="361.336" y="626.543"/>
      <point x="268" y="750.236"/>
      <point x="268" y="985" type="curve" smooth="yes"/>
      <point x="268" y="1232"/>
      <point x="392" y="1379"/>
      <point x="583" y="1379" type="curve" smooth="yes"/>
      <point x="866" y="1379"/>
      <point x="927" y="1100"/>
      <point x="927" y="805" type="curve" smooth="yes"/>
    </contour>
  </outline>
</glyph>
<glyph name="colon" format="1">
  <advance width="482"/>
  <unicode hex="003A"/>
  <outline>
    <contour>
      <point x="163" y="171" type="line"/>
      <point x="328" y="171" type="line"/>
      <point x="328" y="385" type="line"/>
      <point x="163" y="385" type="line"/>
    </contour>
    <contour>
      <point x="163" y="808" type="line"/>
      <point x="328" y="808" type="line"/>
      <point x="328" y="1022" type="line"/>
      <point x="163" y="1022" type="line"/>
    </contour>
  </outline>
</glyph>
<glyph name="less" format="1">
  <advance width="1051"/>
  <unicode hex="003C"/>
  <outline>
    <contour>
      <point x="998" y="106" type="line"/>
      <point x="998" y="237" type="line"/>
      <point x="203" y="525" type="line"/>
      <point x="998" y="802" type="line"/>
      <point x="998" y="947" type="line"/>
      <point x="49" y="591" type="line"/>
      <point x="49" y="472" type="line"/>
    </contour>
  </outline>
</glyph>
<glyph name="equal" format="1">
  <advance width="820"/>
  <unicode hex="003D"/>
  <outline>
    <contour>
      <point x="135" y="303" type="line"/>
      <point x="685" y="303" type="line"/>
      <point x="685" y="398" type="line"/>
      <point x="135" y="398" type="line"/>
    </contour>
    <contour>
      <point x="135" y="553" type="line"/>
      <point x="685" y="553" type="line"/>
      <point x="685" y="649" type="line"/>
      <point x="135" y="649" type="line"/>
    </contour>
  </outline>
</glyph>
<glyph name="greater" format="1">
  <advance width="1051"/>
  <unicode hex="003E"/>
  <outline>
    <contour>
      <point x="53" y="106" type="line"/>
      <point x="1002" y="462" type="line"/>
      <point x="1002" y="581" type="line"/>
      <point x="53" y="947" type="line"/>
      <point x="53" y="816" type="line"/>
      <point x="848" y="528" type="line"/>
      <point x="53" y="250" type="line"/>
    </contour>
  </outline>
</glyph>
<glyph name="at" format="1">
  <advance width="1704"/>
  <unicode hex="0040"/>
  <outline>
    <contour>
      <point x="447" y="655" type="curve" smooth="yes"/>
      <point x="447" y="471.432"/>
      <point x="551.256" y="296.888"/>
      <point x="771.841" y="296.888" type="curve" smooth="yes"/>
      <point x="908.742" y="296.888"/>
      <point x="1057.86" y="399.078"/>
      <point x="1103" y="560" type="curve"/>
      <point x="1102.98" y="558.285"/>
      <point x="1102.97" y="556.582"/>
      <point x="1102.97" y="554.89" type="curve" smooth="yes"/>
      <point x="1102.97" y="386.967"/>
      <point x="1200.56" y="335.93"/>
      <point x="1256" y="329" type="curve" smooth="yes"/>
      <point x="1264.66" y="327.978"/>
      <point x="1273.27" y="327.472"/>
      <point x="1281.81" y="327.472" type="curve" smooth="yes"/>
      <point x="1448.63" y="327.472"/>
      <point x="1588" y="520.625"/>
      <point x="1588" y="826" type="curve" smooth="yes"/>
      <point x="1588" y="1217"/>
      <point x="1254" y="1486"/>
      <point x="883" y="1486" type="curve" smooth="yes"/>
      <point x="394" y="1486"/>
      <point x="117" y="1084"/>
      <point x="117" y="706" type="curve" smooth="yes"/>
      <point x="117" y="349"/>
      <point x="342" y="7"/>
      <point x="842" y="7" type="curve" smooth="yes"/>
      <point x="970" y="7"/>
      <point x="1119" y="37"/>
      <point x="1288" y="121" type="curve"/>
      <point x="1249" y="199" type="line"/>
      <point x="1087" y="127"/>
      <point x="949" y="104"/>
      <point x="838" y="104" type="curve" smooth="yes"/>
      <point x="424" y="104"/>
      <point x="237" y="391"/>
      <point x="237" y="697" type="curve" smooth="yes"/>
      <point x="237" y="1029"/>
      <point x="486" y="1386"/>
      <point x="886" y="1386" type="curve" smooth="yes"/>
      <point x="1189" y="1386"/>
      <point x="1476" y="1178"/>
      <point x="1476" y="838" type="curve" smooth="yes"/>
      <point x="1476" y="525.804"/>
      <point x="1379.78" y="412.597"/>
      <point x="1286.65" y="412.597" type="curve" smooth="yes"/>
      <point x="1210.31" y="412.597"/>
      <point x="1172.61" y="480.282"/>
      <point x="1172.61" y="554.543" type="curve" smooth="yes"/>
      <point x="1172.61" y="567.254"/>
      <point x="1173.74" y="580.173"/>
      <point x="1176" y="593" type="curve" smooth="yes"/>
      <point x="1267" y="1147" type="line"/>
      <point x="1172" y="1147" type="line"/>
      <point x="1149" y="1074" type="line"/>
      <point x="1045" y="1142"/>
      <point x="960" y="1171"/>
      <point x="875" y="1171" type="curve" smooth="yes"/>
      <point x="623" y="1171"/>
      <point x="447" y="909"/>
    </contour>
    <contour>
      <point x="779" y="388" type="curve" smooth="yes"/>
      <point x="629" y="388"/>
      <point x="566" y="518"/>
      <point x="566" y="652" type="curve" smooth="yes"/>
      <point x="566" y="885"/>
      <point x="691" y="1081"/>
      <point x="887" y="1081" type="curve" smooth="yes"/>
      <point x="958" y="1081"/>
      <point x="1039" y="1056"/>
      <point x="1128" y="997" type="curve"/>
      <point x="1084" y="737" type="line" smooth="yes"/>
      <point x="1035" y="445"/>
      <point x="869" y="388"/>
    </contour>
  </outline>
</glyph>
<glyph name="B" format="1">
  <advance width="1300"/>
  <unicode hex="0042"/>
  <outline>
    <contour>
      <point x="154" y="0" type="line"/>
      <point x="555" y="0" type="line" smooth="yes"/>
      <point x="1013" y="0"/>
      <point x="1215" y="85"/>
      <point x="1215" y="413" type="curve" smooth="yes"/>
      <point x="1215" y="629"/>
      <point x="1113" y="760"/>
      <point x="876" y="782" type="curve"/>
      <point x="1105" y="805"/>
      <point x="1168" y="923"/>
      <point x="1171" y="1094" type="curve" smooth="yes"/>
      <point x="1178" y="1416"/>
      <point x="893" y="1464"/>
      <point x="591" y="1464" type="curve" smooth="yes"/>
      <point x="154" y="1464" type="line"/>
    </contour>
    <contour>
      <point x="292" y="107" type="line"/>
      <point x="292" y="733" type="line"/>
      <point x="589" y="733" type="line" smooth="yes"/>
      <point x="892" y="733"/>
      <point x="1077" y="697"/>
      <point x="1077" y="415" type="curve" smooth="yes"/>
      <point x="1077" y="122"/>
      <point x="836" y="107"/>
      <point x="615" y="107" type="curve" smooth="yes"/>
    </contour>
    <contour>
      <point x="292" y="835" type="line"/>
      <point x="292" y="1357" type="line"/>
      <point x="598" y="1357" type="line" smooth="yes"/>
      <point x="833" y="1357"/>
      <point x="1040" y="1347"/>
      <point x="1039" y="1099" type="curve" smooth="yes"/>
      <point x="1038" y="846"/>
      <point x="872" y="835"/>
      <point x="558" y="835" type="curve" smooth="yes"/>
    </contour>
    <contour>
      <point x="650" y="1464" type="move" name="top"/>
    </contour>
  </outline>
</glyph>
<glyph name="E" format="1">
  <advance width="1204"/>
  <unicode hex="0045"/>
  <outline>
    <contour>
      <point x="154" y="0" type="line"/>
      <point x="1129" y="0" type="line"/>
      <point x="1129" y="107" type="line"/>
      <point x="292" y="107" type="line"/>
      <point x="292" y="726" type="line"/>
      <point x="1011" y="726" type="line"/>
      <point x="1011" y="836" type="line"/>
      <point x="292" y="836" type="line"/>
      <point x="292" y="1357" type="line"/>
      <point x="1118" y="1357" type="line"/>
      <point x="1118" y="1464" type="line"/>
      <point x="154" y="1464" type="line"/>
    </contour>
    <contour>
      <point x="602" y="0" type="move" name="bot"/>
    </contour>
    <contour>
      <point x="728" y="0" type="move" name="ogonek"/>
    </contour>
    <contour>
      <point x="602" y="1464" type="move" name="top"/>
    </contour>
  </outline>
</glyph>
<glyph name="F" format="1">
  <advance width="1180"/>
  <unicode hex="0046"/>
  <outline>
    <contour>
      <point x="590" y="1464" type="move" name="top"/>
    </contour>
    <contour>
      <point x="154" y="0" type="line"/>
      <point x="292" y="0" type="line"/>
      <point x="292" y="719" type="line"/>
      <point x="1009" y="719" type="line"/>
      <point x="1009" y="828" type="line"/>
      <point x="292" y="828" type="line"/>
      <point x="292" y="1357" type="line"/>
      <point x="1117" y="1357" type="line"/>
      <point x="1117" y="1464" type="line"/>
      <point x="154" y="1464" type="line"/>
    </contour>
  </outline>
</glyph>
<glyph name="G" format="1">
  <advance width="1390"/>
  <unicode hex="0047"/>
  <outline>
    <contour>
      <point x="724" y="-25" type="curve" smooth="yes"/>
      <point x="908" y="-25"/>
      <point x="1060" y="59"/>
      <point x="1124" y="189" type="curve"/>
      <point x="1151" y="0" type="line"/>
      <point x="1243" y="0" type="line"/>
      <point x="1243" y="0"/>
      <point x="1253" y="428"/>
      <point x="1253" y="581" type="curve" smooth="yes"/>
      <point x="1253" y="786" type="line"/>
      <point x="738" y="786" type="line"/>
      <point x="738" y="667" type="line"/>
      <point x="1116" y="667" type="line"/>
      <point x="1116" y="443" type="line" smooth="yes"/>
      <point x="1116" y="199"/>
      <point x="908" y="87"/>
      <point x="742" y="87" type="curve" smooth="yes"/>
      <point x="398" y="87"/>
      <point x="264" y="319"/>
      <point x="264" y="721" type="curve" smooth="yes"/>
      <point x="264" y="1149"/>
      <point x="406" y="1380"/>
      <point x="743" y="1380" type="curve" smooth="yes"/>
      <point x="924" y="1380"/>
      <point x="1057" y="1281"/>
      <point x="1123" y="1100" type="curve"/>
      <point x="1243" y="1142" type="line"/>
      <point x="1156" y="1377"/>
      <point x="982" y="1491"/>
      <point x="744" y="1491" type="curve" smooth="yes"/>
      <point x="371" y="1491"/>
      <point x="118" y="1269"/>
      <point x="118" y="722" type="curve" smooth="yes"/>
      <point x="118" y="168"/>
      <point x="384" y="-25"/>
    </contour>
    <contour>
      <point x="695" y="0" type="move" name="bot"/>
    </contour>
    <contour>
      <point x="695" y="1464" type="move" name="top"/>
    </contour>
  </outline>
</glyph>
<glyph name="H" format="1">
  <advance width="1462"/>
  <unicode hex="0048"/>
  <outline>
    <contour>
      <point x="154" y="0" type="line"/>
      <point x="292" y="0" type="line"/>
      <point x="292" y="725" type="line"/>
      <point x="1170" y="725" type="line"/>
      <point x="1170" y="0" type="line"/>
      <point x="1308" y="0" type="line"/>
      <point x="1308" y="1464" type="line"/>
      <point x="1170" y="1464" type="line"/>
      <point x="1170" y="835" type="line"/>
      <point x="292" y="835" type="line"/>
      <point x="292" y="1464" type="line"/>
      <point x="154" y="1464" type="line"/>
    </contour>
    <contour>
      <point x="731" y="0" type="move" name="bot"/>
    </contour>
    <contour>
      <point x="731" y="1464" type="move" name="top"/>
    </contour>
  </outline>
</glyph>
<glyph name="I" format="1">
  <advance width="464"/>
  <unicode hex="0049"/>
  <outline>
    <contour>
      <point x="167" y="0" type="line"/>
      <point x="305" y="0" type="line"/>
      <point x="305" y="1464" type="line"/>
      <point x="167" y="1464" type="line"/>
    </contour>
    <contour>
      <point x="232" y="0" type="move" name="bot"/>
    </contour>
    <contour>
      <point x="247" y="0" type="move" name="ogonek"/>
    </contour>
    <contour>
      <point x="232" y="1464" type="move" name="top"/>
    </contour>
  </outline>
</glyph>
<glyph name="J" format="1">
  <advance width="943"/>
  <unicode hex="004A"/>
  <outline>
    <contour>
      <point x="400" y="-26" type="curve" smooth="yes"/>
      <point x="712" y="-26"/>
      <point x="807" y="166"/>
      <point x="807" y="544" type="curve" smooth="yes"/>
      <point x="807" y="1464" type="line"/>
      <point x="670" y="1464" type="line"/>
      <point x="670" y="541" type="line" smooth="yes"/>
      <point x="670" y="309"/>
      <point x="658" y="89"/>
      <point x="412" y="87" type="curve" smooth="yes"/>
      <point x="244" y="87"/>
      <point x="181" y="196"/>
      <point x="143" y="367" type="curve"/>
      <point x="20" y="334" type="line"/>
      <point x="63" y="117"/>
      <point x="174" y="-26"/>
    </contour>
    <contour>
      <point x="471.5" y="0" type="move" name="bot"/>
    </contour>
    <contour>
      <point x="739" y="1464" type="move" name="top"/>
    </contour>
  </outline>
</glyph>
<glyph name="K" format="1">
  <advance width="1252"/>
  <unicode hex="004B"/>
  <outline>
    <contour>
      <point x="154" y="0" type="line"/>
      <point x="292" y="0" type="line"/>
      <point x="292" y="551" type="line"/>
      <point x="552" y="819" type="line"/>
      <point x="1083" y="0" type="line"/>
      <point x="1242" y="0" type="line"/>
      <point x="646" y="916" type="line"/>
      <point x="1177" y="1464" type="line"/>
      <point x="1009" y="1464" type="line"/>
      <point x="292" y="717" type="line"/>
      <point x="292" y="1464" type="line"/>
      <point x="154" y="1464" type="line"/>
    </contour>
    <contour>
      <point x="626" y="0" type="move" name="bot"/>
    </contour>
    <contour>
      <point x="626" y="1464" type="move" name="top"/>
    </contour>
  </outline>
</glyph>
<glyph name="M" format="1">
  <advance width="1651"/>
  <unicode hex="004D"/>
  <outline>
    <contour>
      <point x="154" y="0" type="line"/>
      <point x="286" y="0" type="line"/>
      <point x="286" y="1291" type="line"/>
      <point x="759" y="250" type="line"/>
      <point x="888" y="250" type="line"/>
      <point x="1370" y="1287" type="line"/>
      <point x="1370" y="0" type="line"/>
      <point x="1497" y="0" type="line"/>
      <point x="1497" y="1464" type="line"/>
      <point x="1316" y="1464" type="line"/>
      <point x="829" y="397" type="line"/>
      <point x="354" y="1464" type="line"/>
      <point x="154" y="1464" type="line"/>
    </contour>
    <contour>
      <point x="825.5" y="0" type="move" name="bot"/>
    </contour>
    <contour>
      <point x="856" y="1464" type="move" name="top"/>
    </contour>
  </outline>
</glyph>
<glyph name="N" format="1">
  <advance width="1499"/>
  <unicode hex="004E"/>
  <outline>
    <contour>
      <point x="154" y="0" type="line"/>
      <point x="280" y="0" type="line"/>
      <point x="280" y="1299" type="line"/>
      <point x="1220" y="0" type="line"/>
      <point x="1346" y="0" type="line"/>
      <point x="1346" y="1464" type="line"/>
      <point x="1223" y="1464" type="line"/>
      <point x="1223" y="210" type="line"/>
      <point x="309" y="1464" type="line"/>
      <point x="154" y="1464" type="line"/>
    </contour>
    <contour>
      <point x="749.5" y="0" type="move" name="bot"/>
    </contour>
    <contour>
      <point x="749.5" y="1464" type="move" name="top"/>
    </contour>
  </outline>
</glyph>
<glyph name="O" format="1">
  <advance width="1450"/>
  <unicode hex="004F"/>
  <outline>
    <contour>
      <point x="725" y="1464" type="move" name="top"/>
    </contour>
    <contour>
      <point x="781" y="0" type="move" name="ogonek"/>
    </contour>
    <contour>
      <point x="725" y="86" type="curve" smooth="yes"/>
      <point x="382" y="86"/>
      <point x="265" y="298"/>
      <point x="265" y="741" type="curve" smooth="yes"/>
      <point x="265" y="1135"/>
      <point x="368" y="1378"/>
      <point x="723" y="1378" type="curve" smooth="yes"/>
      <point x="1080" y="1378"/>
      <point x="1185" y="1135"/>
      <point x="1185" y="740" type="curve" smooth="yes"/>
      <point x="1185" y="294"/>
      <point x="1066" y="86"/>
    </contour>
    <contour>
      <point x="722" y="-24" type="curve" smooth="yes"/>
      <point x="1112" y="-24"/>
      <point x="1331" y="194"/>
      <point x="1331" y="741" type="curve" smooth="yes"/>
      <point x="1331" y="1280"/>
      <point x="1102" y="1488"/>
      <point x="723" y="1488" type="curve" smooth="yes"/>
      <point x="345" y="1488"/>
      <point x="118" y="1281"/>
      <point x="118" y="740" type="curve" smooth="yes"/>
      <point x="118" y="187"/>
      <point x="340" y="-24"/>
    </contour>
  </outline>
</glyph>
<glyph name="P" format="1">
  <advance width="1248"/>
  <unicode hex="0050"/>
  <outline>
    <contour>
      <point x="154" y="0" type="line"/>
      <point x="292" y="0" type="line"/>
      <point x="292" y="636" type="line"/>
      <point x="473" y="636" type="line" smooth="yes"/>
      <point x="985" y="636"/>
      <point x="1185" y="724"/>
      <point x="1185" y="1063" type="curve" smooth="yes"/>
      <point x="1185" y="1360"/>
      <point x="1011" y="1464"/>
      <point x="535" y="1464" type="curve" smooth="yes"/>
      <point x="154" y="1464" type="line"/>
    </contour>
    <contour>
      <point x="292" y="743" type="line"/>
      <point x="292" y="1357" type="line"/>
      <point x="511" y="1357" type="line" smooth="yes"/>
      <point x="902" y="1357"/>
      <point x="1045" y="1308"/>
      <point x="1045" y="1055" type="curve" smooth="yes"/>
      <point x="1045" y="805"/>
      <point x="899" y="745"/>
      <point x="531" y="743" type="curve" smooth="yes"/>
    </contour>
    <contour>
      <point x="624" y="0" type="move" name="bot"/>
    </contour>
    <contour>
      <point x="624" y="1464" type="move" name="top"/>
    </contour>
  </outline>
</glyph>
<glyph name="R" format="1">
  <advance width="1296"/>
  <unicode hex="0052"/>
  <outline>
    <contour>
      <point x="648" y="1464" type="move" name="top"/>
    </contour>
    <contour>
      <point x="154" y="0" type="line"/>
      <point x="292" y="0" type="line"/>
      <point x="292" y="676" type="line"/>
      <point x="757" y="676" type="line"/>
      <point x="1089" y="0" type="line"/>
      <point x="1237" y="0" type="line"/>
      <point x="898" y="695" type="line"/>
      <point x="1108" y="733"/>
      <point x="1214" y="868"/>
      <point x="1214" y="1082" type="curve" smooth="yes"/>
      <point x="1214" y="1347"/>
      <point x="1065" y="1464"/>
      <point x="678" y="1464" type="curve" smooth="yes"/>
      <point x="154" y="1464" type="line"/>
    </contour>
    <contour>
      <point x="292" y="782" type="line"/>
      <point x="292" y="1357" type="line"/>
      <point x="669" y="1357" type="line" smooth="yes"/>
      <point x="870" y="1357"/>
      <point x="1073" y="1344"/>
      <point x="1073" y="1080" type="curve" smooth="yes"/>
      <point x="1073" y="820"/>
      <point x="892" y="782"/>
      <point x="678" y="782" type="curve" smooth="yes"/>
    </contour>
  </outline>
</glyph>
<glyph name="S" format="1">
  <advance width="1211"/>
  <unicode hex="0053"/>
  <outline>
    <contour>
      <point x="606" y="1464" type="move" name="top"/>
    </contour>
    <contour>
      <point x="611" y="-25" type="curve" smooth="yes"/>
      <point x="934" y="-25"/>
      <point x="1154" y="127"/>
      <point x="1154" y="393" type="curve" smooth="yes"/>
      <point x="1154" y="643"/>
      <point x="998" y="731"/>
      <point x="708" y="825" type="curve" smooth="yes"/>
      <point x="492" y="896"/>
      <point x="276" y="931"/>
      <point x="276" y="1137" type="curve" smooth="yes"/>
      <point x="276" y="1313"/>
      <point x="443" y="1380"/>
      <point x="635" y="1380" type="curve" smooth="yes"/>
      <point x="794" y="1380"/>
      <point x="941" y="1307"/>
      <point x="1021" y="1164" type="curve"/>
      <point x="1124" y="1240" type="line"/>
      <point x="1007" y="1419"/>
      <point x="845" y="1491"/>
      <point x="614" y="1491" type="curve" smooth="yes"/>
      <point x="378" y="1491"/>
      <point x="130" y="1379"/>
      <point x="130" y="1125" type="curve" smooth="yes"/>
      <point x="130" y="883"/>
      <point x="328" y="808"/>
      <point x="561" y="734" type="curve" smooth="yes"/>
      <point x="881" y="634"/>
      <point x="1008" y="585"/>
      <point x="1008" y="388" type="curve" smooth="yes"/>
      <point x="1008" y="154"/>
      <point x="800" y="87"/>
      <point x="626" y="87" type="curve" smooth="yes"/>
      <point x="374" y="87"/>
      <point x="218" y="197"/>
      <point x="158" y="423" type="curve"/>
      <point x="41" y="373" type="line"/>
      <point x="98" y="65"/>
      <point x="396" y="-25"/>
    </contour>
  </outline>
</glyph>
<glyph name="T" format="1">
  <advance width="1119"/>
  <unicode hex="0054"/>
  <outline>
    <contour>
      <point x="560" y="1464" type="move" name="top"/>
    </contour>
    <contour>
      <point x="496" y="0" type="line"/>
      <point x="635" y="0" type="line"/>
      <point x="635" y="1357" type="line"/>
      <point x="1110" y="1357" type="line"/>
      <point x="1110" y="1464" type="line"/>
      <point x="9" y="1464" type="line"/>
      <point x="9" y="1357" type="line"/>
      <point x="496" y="1357" type="line"/>
    </contour>
  </outline>
</glyph>
<glyph name="U" format="1">
  <advance width="1341"/>
  <unicode hex="0055"/>
  <outline>
    <contour>
      <point x="668" y="-24" type="curve" smooth="yes"/>
      <point x="1043" y="-24"/>
      <point x="1218" y="157"/>
      <point x="1218" y="577" type="curve" smooth="yes"/>
      <point x="1218" y="1464" type="line"/>
      <point x="1079" y="1464" type="line"/>
      <point x="1079" y="572" type="line" smooth="yes"/>
      <point x="1079" y="277"/>
      <point x="1003" y="86"/>
      <point x="674" y="86" type="curve" smooth="yes"/>
      <point x="342" y="86"/>
      <point x="262" y="270"/>
      <point x="262" y="572" type="curve" smooth="yes"/>
      <point x="262" y="1464" type="line"/>
      <point x="124" y="1464" type="line"/>
      <point x="124" y="570" type="line" smooth="yes"/>
      <point x="124" y="149"/>
      <point x="307" y="-24"/>
    </contour>
    <contour>
      <point x="805" y="0" type="move" name="ogonek"/>
    </contour>
    <contour>
      <point x="670.5" y="0" type="move" name="bot"/>
    </contour>
    <contour>
      <point x="670.5" y="1464" type="move" name="top"/>
    </contour>
  </outline>
</glyph>
<glyph name="V" format="1">
  <advance width="1164"/>
  <unicode hex="0056"/>
  <outline>
    <contour>
      <point x="517" y="0" type="line"/>
      <point x="647" y="0" type="line"/>
      <point x="1161" y="1464" type="line"/>
      <point x="1024" y="1464" type="line"/>
      <point x="586" y="184" type="line"/>
      <point x="136" y="1464" type="line"/>
      <point x="-8" y="1464" type="line"/>
    </contour>
  </outline>
</glyph>
<glyph name="W" format="1">
  <advance width="1807"/>
  <unicode hex="0057"/>
  <outline>
    <contour>
      <point x="904" y="1464" type="move" name="top"/>
    </contour>
    <contour>
      <point x="439" y="0" type="line"/>
      <point x="544" y="0" type="line"/>
      <point x="913" y="1202" type="line"/>
      <point x="1253" y="0" type="line"/>
      <point x="1373" y="0" type="line"/>
      <point x="1785" y="1464" type="line"/>
      <point x="1653" y="1464" type="line"/>
      <point x="1322" y="206" type="line"/>
      <point x="972" y="1464" type="line"/>
      <point x="873" y="1464" type="line"/>
      <point x="497" y="222" type="line"/>
      <point x="166" y="1464" type="line"/>
      <point x="22" y="1464" type="line"/>
    </contour>
  </outline>
</glyph>
<glyph name="X" format="1">
  <advance width="1239"/>
  <unicode hex="0058"/>
  <outline>
    <contour>
      <point x="7" y="0" type="line"/>
      <point x="166" y="0" type="line"/>
      <point x="617" y="649" type="line"/>
      <point x="1068" y="0" type="line"/>
      <point x="1232" y="0" type="line"/>
      <point x="700" y="769" type="line"/>
      <point x="1188" y="1464" type="line"/>
      <point x="1030" y="1464" type="line"/>
      <point x="622" y="881" type="line"/>
      <point x="219" y="1464" type="line"/>
      <point x="53" y="1464" type="line"/>
      <point x="539" y="762" type="line"/>
    </contour>
  </outline>
</glyph>
<glyph name="Y" format="1">
  <advance width="1157"/>
  <unicode hex="0059"/>
  <outline>
    <contour>
      <point x="578" y="1464" type="move" name="top"/>
    </contour>
    <contour>
      <point x="510" y="0" type="line"/>
      <point x="648" y="0" type="line"/>
      <point x="648" y="548" type="line"/>
      <point x="1160" y="1464" type="line"/>
      <point x="1012" y="1464" type="line"/>
      <point x="580" y="674" type="line"/>
      <point x="146" y="1464" type="line"/>
      <point x="-3" y="1464" type="line"/>
      <point x="510" y="549" type="line"/>
    </contour>
  </outline>
</glyph>
<glyph name="Z" format="1">
  <advance width="1176"/>
  <unicode hex="005A"/>
  <outline>
    <contour>
      <point x="48" y="0" type="line"/>
      <point x="1134" y="0" type="line"/>
      <point x="1139" y="105" type="line"/>
      <point x="225" y="105" type="line"/>
      <point x="1132" y="1373" type="line"/>
      <point x="1132" y="1464" type="line"/>
      <point x="131" y="1464" type="line"/>
      <point x="131" y="1360" type="line"/>
      <point x="955" y="1360" type="line"/>
      <point x="48" y="93" type="line"/>
    </contour>
    <contour>
      <point x="588" y="0" type="move" name="bot"/>
    </contour>
    <contour>
      <point x="588" y="1464" type="move" name="top"/>
    </contour>
  </outline>
</glyph>
<glyph name="backslash" format="1">
  <advance width="632"/>
  <unicode hex="005C"/>
  <outline>
    <contour>
      <point x="444" y="-5" type="line"/>
      <point x="582" y="-5" type="line"/>
      <point x="185" y="1464" type="line"/>
      <point x="47" y="1464" type="line"/>
    </contour>
  </outline>
</glyph>
<glyph name="bracketright" format="1">
  <advance width="707"/>
  <unicode hex="005D"/>
  <outline>
    <contour>
      <point x="118" y="-52" type="line"/>
      <point x="572" y="-52" type="line"/>
      <point x="572" y="1480" type="line"/>
      <point x="118" y="1480" type="line"/>
      <point x="118" y="1379" type="line"/>
      <point x="434" y="1379" type="line"/>
      <point x="434" y="50" type="line"/>
      <point x="118" y="50" type="line"/>
    </contour>
  </outline>
</glyph>
<glyph name="asciicircum" format="1">
  <advance width="1053"/>
  <unicode hex="005E"/>
  <outline>
    <contour>
      <point x="106" y="100" type="line"/>
      <point x="237" y="100" type="line"/>
      <point x="526" y="845" type="line"/>
      <point x="802" y="100" type="line"/>
      <point x="946" y="100" type="line"/>
      <point x="592" y="999" type="line"/>
      <point x="473" y="999" type="line"/>
    </contour>
  </outline>
</glyph>
<glyph name="grave" format="1">
  <advance width="496"/>
  <unicode hex="0060"/>
  <outline>
    <contour>
      <point x="365" y="1154" type="line"/>
      <point x="454" y="1155" type="line"/>
      <point x="249" y="1474" type="line"/>
      <point x="63" y="1474" type="line"/>
    </contour>
    <contour>
      <point x="358" y="1023" type="move" name="_top"/>
    </contour>
  </outline>
</glyph>
<glyph name="a" format="1">
  <advance width="1001"/>
  <unicode hex="0061"/>
  <outline>
    <contour>
      <point x="399" y="-25" type="curve" smooth="yes"/>
      <point x="556" y="-25"/>
      <point x="672" y="31"/>
      <point x="747" y="134" type="curve"/>
      <point x="760" y="0" type="line"/>
      <point x="876" y="0" type="line"/>
      <point x="876" y="672" type="line" smooth="yes"/>
      <point x="876" y="925"/>
      <point x="765" y="1044"/>
      <point x="524" y="1044" type="curve" smooth="yes"/>
      <point x="364" y="1044"/>
      <point x="242" y="999"/>
      <point x="136" y="918" type="curve"/>
      <point x="136" y="918"/>
      <point x="191" y="838"/>
      <point x="191" y="837" type="curve"/>
      <point x="291" y="915"/>
      <point x="405" y="947"/>
      <point x="516" y="947" type="curve" smooth="yes"/>
      <point x="688" y="947"/>
      <point x="741" y="885"/>
      <point x="741" y="648" type="curve" smooth="yes"/>
      <point x="741" y="588" type="line"/>
      <point x="634" y="572" type="line"/>
      <point x="291" y="525"/>
      <point x="106" y="483"/>
      <point x="106" y="227" type="curve" smooth="yes"/>
      <point x="106" y="48"/>
      <point x="240" y="-25"/>
    </contour>
    <contour>
      <point x="424" y="70" type="curve" smooth="yes"/>
      <point x="292" y="70"/>
      <point x="232" y="118"/>
      <point x="232" y="241" type="curve" smooth="yes"/>
      <point x="232" y="381"/>
      <point x="291" y="434"/>
      <point x="614" y="482" type="curve" smooth="yes"/>
      <point x="741" y="501" type="line"/>
      <point x="741" y="227" type="line"/>
      <point x="652" y="117"/>
      <point x="545" y="70"/>
    </contour>
    <contour>
      <point x="500.5" y="0" type="move" name="bot"/>
    </contour>
    <contour>
      <point x="500.5" y="1023" type="move" name="top"/>
    </contour>
    <contour>
      <point x="820" y="0" type="move" name="ogonek"/>
    </contour>
  </outline>
</glyph>
<glyph name="b" format="1">
  <advance width="1081"/>
  <unicode hex="0062"/>
  <outline>
    <contour>
      <point x="573" y="-24" type="curve" smooth="yes"/>
      <point x="834" y="-24"/>
      <point x="979" y="192"/>
      <point x="979" y="500" type="curve" smooth="yes"/>
      <point x="979" y="847"/>
      <point x="824" y="1044"/>
      <point x="581" y="1044" type="curve" smooth="yes"/>
      <point x="439" y="1044"/>
      <point x="330" y="977"/>
      <point x="263" y="860" type="curve"/>
      <point x="263" y="1473" type="line"/>
      <point x="128" y="1473" type="line"/>
      <point x="128" y="-1" type="line"/>
      <point x="233" y="-1" type="line"/>
      <point x="241" y="184" type="line"/>
      <point x="294" y="59"/>
      <point x="397" y="-24"/>
    </contour>
    <contour>
      <point x="569" y="72" type="curve" smooth="yes"/>
      <point x="349" y="72"/>
      <point x="259" y="198"/>
      <point x="259" y="520" type="curve" smooth="yes"/>
      <point x="259" y="809"/>
      <point x="378" y="948"/>
      <point x="570" y="948" type="curve" smooth="yes"/>
      <point x="744" y="948"/>
      <point x="843" y="795"/>
      <point x="843" y="514" type="curve" smooth="yes"/>
      <point x="843" y="227"/>
      <point x="744" y="72"/>
    </contour>
    <contour>
      <point x="540.5" y="1023" type="move" name="top"/>
    </contour>
  </outline>
</glyph>
<glyph name="f" format="1">
  <advance width="621"/>
  <unicode hex="0066"/>
  <outline>
    <contour>
      <point x="226" y="0" type="line"/>
      <point x="361" y="0" type="line"/>
      <point x="361" y="922" type="line"/>
      <point x="559" y="922" type="line"/>
      <point x="559" y="1023" type="line"/>
      <point x="361" y="1023" type="line"/>
      <point x="361" y="1146" type="line" smooth="yes"/>
      <point x="361" y="1307"/>
      <point x="373" y="1371"/>
      <point x="465" y="1371" type="curve" smooth="yes"/>
      <point x="508" y="1371"/>
      <point x="543" y="1358"/>
      <point x="574" y="1344" type="curve"/>
      <point x="609" y="1428" type="line"/>
      <point x="580" y="1449"/>
      <point x="521" y="1474"/>
      <point x="452" y="1474" type="curve" smooth="yes"/>
      <point x="278" y="1474"/>
      <point x="226" y="1359"/>
      <point x="226" y="1143" type="curve" smooth="yes"/>
      <point x="226" y="1023" type="line"/>
      <point x="53" y="1023" type="line"/>
      <point x="53" y="922" type="line"/>
      <point x="226" y="922" type="line"/>
    </contour>
    <contour>
      <point x="311" y="1324" type="move" name="top"/>
    </contour>
  </outline>
</glyph>
<glyph name="k" format="1">
  <advance width="1000"/>
  <unicode hex="006B"/>
  <outline>
    <contour>
      <point x="514" y="1324" type="move" name="top"/>
    </contour>
    <contour>
      <point x="128" y="0" type="line"/>
      <point x="264" y="0" type="line"/>
      <point x="264" y="367" type="line"/>
      <point x="478" y="570" type="line"/>
      <point x="858" y="0" type="line"/>
      <point x="1010" y="0" type="line"/>
      <point x="565" y="654" type="line"/>
      <point x="954" y="1023" type="line"/>
      <point x="800" y="1023" type="line"/>
      <point x="264" y="512" type="line"/>
      <point x="263" y="1474" type="line"/>
      <point x="128" y="1474" type="line"/>
    </contour>
  </outline>
</glyph>
<glyph name="l" format="1">
  <advance width="411"/>
  <unicode hex="006C"/>
  <outline>
    <contour>
      <point x="206" y="1464" type="move" name="top"/>
    </contour>
    <contour>
      <point x="267" y="1023" type="move" name="caron.alt"/>
    </contour>
    <contour>
      <point x="132" y="0" type="line"/>
      <point x="267" y="0" type="line"/>
      <point x="267" y="1474" type="line"/>
      <point x="132" y="1474" type="line"/>
    </contour>
  </outline>
</glyph>
<glyph name="m" format="1">
  <advance width="1782"/>
  <unicode hex="006D"/>
  <outline>
    <contour>
      <point x="128" y="0" type="line"/>
      <point x="263" y="0" type="line"/>
      <point x="262" y="536" type="line"/>
      <point x="270" y="771"/>
      <point x="357" y="948"/>
      <point x="602" y="948" type="curve" smooth="yes"/>
      <point x="782" y="948"/>
      <point x="824" y="813"/>
      <point x="824" y="603" type="curve" smooth="yes"/>
      <point x="824" y="0" type="line"/>
      <point x="959" y="0" type="line"/>
      <point x="959" y="494" type="line" smooth="yes"/>
      <point x="959" y="746"/>
      <point x="1040" y="948"/>
      <point x="1299" y="948" type="curve" smooth="yes"/>
      <point x="1479" y="948"/>
      <point x="1522" y="813"/>
      <point x="1522" y="603" type="curve" smooth="yes"/>
      <point x="1522" y="0" type="line"/>
      <point x="1657" y="0" type="line"/>
      <point x="1657" y="583" type="line" smooth="yes"/>
      <point x="1657" y="789"/>
      <point x="1640" y="1044"/>
      <point x="1317" y="1044" type="curve" smooth="yes"/>
      <point x="1132" y="1044"/>
      <point x="1005" y="961"/>
      <point x="941" y="806" type="curve"/>
      <point x="910" y="937"/>
      <point x="829" y="1044"/>
      <point x="620" y="1044" type="curve" smooth="yes"/>
      <point x="452" y="1044"/>
      <point x="331" y="975"/>
      <point x="262" y="846" type="curve"/>
      <point x="262" y="1023" type="line"/>
      <point x="128" y="1023" type="line"/>
    </contour>
    <contour>
      <point x="891" y="0" type="move" name="bot"/>
    </contour>
    <contour>
      <point x="955" y="1023" type="move" name="top"/>
    </contour>
  </outline>
</glyph>
<glyph name="n" format="1">
  <advance width="1084"/>
  <unicode hex="006E"/>
  <outline>
    <contour>
      <point x="128" y="0" type="line"/>
      <point x="263" y="0" type="line"/>
      <point x="262" y="571" type="line"/>
      <point x="276" y="790"/>
      <point x="365" y="948"/>
      <point x="600" y="948" type="curve" smooth="yes"/>
      <point x="779" y="948"/>
      <point x="824" y="818"/>
      <point x="824" y="606" type="curve" smooth="yes"/>
      <point x="824" y="0" type="line"/>
      <point x="959" y="0" type="line"/>
      <point x="959" y="583" type="line" smooth="yes"/>
      <point x="959" y="786"/>
      <point x="940" y="1044"/>
      <point x="620" y="1044" type="curve" smooth="yes"/>
      <point x="452" y="1044"/>
      <point x="331" y="979"/>
      <point x="262" y="848" type="curve"/>
      <point x="262" y="1023" type="line"/>
      <point x="128" y="1023" type="line"/>
    </contour>
    <contour>
      <point x="542" y="0" type="move" name="bot"/>
    </contour>
    <contour>
      <point x="542" y="1023" type="move" name="top"/>
    </contour>
  </outline>
</glyph>
<glyph name="o" format="1">
  <advance width="1078"/>
  <unicode hex="006F"/>
  <outline>
    <contour>
      <point x="539" y="72" type="curve" smooth="yes"/>
      <point x="302" y="72"/>
      <point x="239" y="297"/>
      <point x="239" y="510" type="curve" smooth="yes"/>
      <point x="239" y="723"/>
      <point x="302" y="948"/>
      <point x="539" y="948" type="curve" smooth="yes"/>
      <point x="776" y="948"/>
      <point x="839" y="723"/>
      <point x="839" y="510" type="curve" smooth="yes"/>
      <point x="839" y="297"/>
      <point x="776" y="72"/>
    </contour>
    <contour>
      <point x="539" y="-24" type="curve" smooth="yes"/>
      <point x="802" y="-24"/>
      <point x="976" y="160"/>
      <point x="976" y="510" type="curve" smooth="yes"/>
      <point x="976" y="859"/>
      <point x="802" y="1044"/>
      <point x="539" y="1044" type="curve" smooth="yes"/>
      <point x="276" y="1044"/>
      <point x="101" y="859"/>
      <point x="101" y="510" type="curve" smooth="yes"/>
      <point x="101" y="160"/>
      <point x="276" y="-24"/>
    </contour>
    <contour>
      <point x="539" y="0" type="move" name="bot"/>
    </contour>
    <contour>
      <point x="539" y="1023" type="move" name="top"/>
    </contour>
    <contour>
      <point x="575" y="0" type="move" name="ogonek"/>
    </contour>
  </outline>
</glyph>
<glyph name="p" format="1">
  <advance width="1084"/>
  <unicode hex="0070"/>
  <outline>
    <contour>
      <point x="128" y="-348" type="line"/>
      <point x="263" y="-348" type="line"/>
      <point x="263" y="145" type="line"/>
      <point x="321" y="42"/>
      <point x="420" y="-24"/>
      <point x="576" y="-24" type="curve" smooth="yes"/>
      <point x="837" y="-24"/>
      <point x="983" y="192"/>
      <point x="983" y="500" type="curve" smooth="yes"/>
      <point x="983" y="855"/>
      <point x="823" y="1044"/>
      <point x="577" y="1044" type="curve" smooth="yes"/>
      <point x="431" y="1044"/>
      <point x="322" y="973"/>
      <point x="259" y="847" type="curve"/>
      <point x="244" y="1023" type="line"/>
      <point x="128" y="1023" type="line"/>
    </contour>
    <contour>
      <point x="572" y="72" type="curve" smooth="yes"/>
      <point x="356" y="72"/>
      <point x="262" y="178"/>
      <point x="262" y="544" type="curve"/>
      <point x="269" y="816"/>
      <point x="383" y="948"/>
      <point x="569" y="948" type="curve" smooth="yes"/>
      <point x="747" y="948"/>
      <point x="846" y="794"/>
      <point x="846" y="514" type="curve" smooth="yes"/>
      <point x="846" y="227"/>
      <point x="748" y="72"/>
    </contour>
    <contour>
      <point x="542" y="0" type="move" name="bot"/>
    </contour>
    <contour>
      <point x="542" y="1023" type="move" name="top"/>
    </contour>
  </outline>
</glyph>
<glyph name="r" format="1">
  <advance width="630"/>
  <unicode hex="0072"/>
  <outline>
    <contour>
      <point x="315" y="1023" type="move" name="top"/>
    </contour>
    <contour>
      <point x="129" y="0" type="line"/>
      <point x="264" y="0" type="line"/>
      <point x="263" y="561" type="line"/>
      <point x="270" y="738"/>
      <point x="353" y="909"/>
      <point x="572" y="909" type="curve"/>
      <point x="572" y="1028" type="line"/>
      <point x="436" y="1028"/>
      <point x="329" y="965"/>
      <point x="263" y="829" type="curve"/>
      <point x="263" y="1023" type="line"/>
      <point x="129" y="1023" type="line"/>
    </contour>
  </outline>
</glyph>
<glyph name="s" format="1">
  <advance width="911"/>
  <unicode hex="0073"/>
  <outline>
    <contour>
      <point x="443" y="-24" type="curve" smooth="yes"/>
      <point x="717" y="-24"/>
      <point x="839" y="83"/>
      <point x="839" y="283" type="curve" smooth="yes"/>
      <point x="839" y="471"/>
      <point x="738" y="526"/>
      <point x="497" y="574" type="curve" smooth="yes"/>
      <point x="282" y="616"/>
      <point x="234" y="637"/>
      <point x="234" y="761" type="curve" smooth="yes"/>
      <point x="234" y="883"/>
      <point x="305" y="948"/>
      <point x="482" y="948" type="curve" smooth="yes"/>
      <point x="618" y="948"/>
      <point x="694" y="900"/>
      <point x="740" y="792" type="curve"/>
      <point x="740" y="793"/>
      <point x="827" y="840"/>
      <point x="827" y="840" type="curve"/>
      <point x="757" y="992"/>
      <point x="651" y="1044"/>
      <point x="474" y="1044" type="curve" smooth="yes"/>
      <point x="257" y="1044"/>
      <point x="106" y="944"/>
      <point x="106" y="761" type="curve" smooth="yes"/>
      <point x="106" y="560"/>
      <point x="212" y="522"/>
      <point x="404" y="480" type="curve" smooth="yes"/>
      <point x="673" y="420"/>
      <point x="720" y="419"/>
      <point x="720" y="263" type="curve" smooth="yes"/>
      <point x="721" y="119"/>
      <point x="603" y="72"/>
      <point x="456" y="72" type="curve" smooth="yes"/>
      <point x="293" y="72"/>
      <point x="220" y="136"/>
      <point x="173" y="267" type="curve"/>
      <point x="73" y="227" type="line"/>
      <point x="125" y="36"/>
      <point x="292" y="-24"/>
    </contour>
    <contour>
      <point x="455.5" y="0" type="move" name="bot"/>
    </contour>
    <contour>
      <point x="455.5" y="1023" type="move" name="top"/>
    </contour>
  </outline>
</glyph>
<glyph name="t" format="1">
  <advance width="652"/>
  <unicode hex="0074"/>
  <outline>
    <contour>
      <point x="271" y="1324" type="move" name="top"/>
    </contour>
    <contour>
      <point x="278" y="1023" type="move" name="caron.alt"/>
    </contour>
    <contour>
      <point x="469.087" y="84.946" type="curve" smooth="yes"/>
      <point x="379.827" y="84.946"/>
      <point x="335" y="131.452"/>
      <point x="335" y="263" type="curve" smooth="yes"/>
      <point x="335" y="931" type="line"/>
      <point x="559" y="931" type="line"/>
      <point x="559" y="1023" type="line"/>
      <point x="335" y="1023" type="line"/>
      <point x="335" y="1386" type="line"/>
      <point x="206" y="1351" type="line"/>
      <point x="200" y="1023" type="line"/>
      <point x="46" y="1023" type="line"/>
      <point x="46" y="931" type="line"/>
      <point x="200" y="931" type="line"/>
      <point x="200" y="328" type="line" smooth="yes"/>
      <point x="200" y="81"/>
      <point x="275" y="-16"/>
      <point x="452" y="-16" type="curve" smooth="yes"/>
      <point x="518" y="-16"/>
      <point x="587" y="8"/>
      <point x="619" y="29" type="curve"/>
      <point x="596" y="115" type="line"/>
      <point x="557.445" y="97.6504"/>
      <point x="514.246" y="84.946"/>
    </contour>
  </outline>
</glyph>
<glyph name="v" format="1">
  <advance width="951"/>
  <unicode hex="0076"/>
  <outline>
    <contour>
      <point x="409" y="0" type="line"/>
      <point x="529" y="0" type="line"/>
      <point x="924" y="1023" type="line"/>
      <point x="792" y="1023" type="line"/>
      <point x="475" y="164" type="line"/>
      <point x="161" y="1023" type="line"/>
      <point x="24" y="1023" type="line"/>
    </contour>
  </outline>
</glyph>
<glyph name="w" format="1">
  <advance width="1486"/>
  <unicode hex="0077"/>
  <outline>
    <contour>
      <point x="352" y="0" type="line"/>
      <point x="471" y="0" type="line"/>
      <point x="742" y="806" type="line"/>
      <point x="993" y="0" type="line"/>
      <point x="1114" y="0" type="line"/>
      <point x="1457" y="1023" type="line"/>
      <point x="1326" y="1023" type="line"/>
      <point x="1060" y="168" type="line"/>
      <point x="789" y="1023" type="line"/>
      <point x="706" y="1023" type="line"/>
      <point x="417" y="168" type="line"/>
      <point x="169" y="1023" type="line"/>
      <point x="30" y="1023" type="line"/>
    </contour>
    <contour>
      <point x="743" y="0" type="move" name="bot"/>
    </contour>
    <contour>
      <point x="743" y="1023" type="move" name="top"/>
    </contour>
  </outline>
</glyph>
<glyph name="y" format="1">
  <advance width="972"/>
  <unicode hex="0079"/>
  <outline>
    <contour>
      <point x="182" y="-320" type="curve" smooth="yes"/>
      <point x="398" y="-330"/>
      <point x="464" y="-190"/>
      <point x="573" y="100" type="curve" smooth="yes"/>
      <point x="921" y="1023" type="line"/>
      <point x="788" y="1023" type="line"/>
      <point x="487" y="197" type="line"/>
      <point x="186" y="1023" type="line"/>
      <point x="47" y="1023" type="line"/>
      <point x="419" y="57" type="line"/>
      <point x="398" y="-5" type="line" smooth="yes"/>
      <point x="346" y="-161"/>
      <point x="297" y="-205"/>
      <point x="182" y="-205" type="curve" smooth="yes"/>
      <point x="155" y="-205"/>
      <point x="126" y="-202"/>
      <point x="92" y="-197" type="curve"/>
      <point x="77" y="-306" type="line"/>
      <point x="114" y="-316"/>
      <point x="149" y="-319"/>
    </contour>
    <contour>
      <point x="486" y="0" type="move" name="bot"/>
    </contour>
    <contour>
      <point x="486" y="1023" type="move" name="top"/>
    </contour>
  </outline>
</glyph>
<glyph name="z" format="1">
  <advance width="879"/>
  <unicode hex="007A"/>
  <outline>
    <contour>
      <point x="470" y="1023" type="move" name="top"/>
    </contour>
    <contour>
      <point x="66" y="0" type="line"/>
      <point x="819" y="0" type="line"/>
      <point x="819" y="98" type="line"/>
      <point x="220" y="98" type="line"/>
      <point x="821" y="933" type="line"/>
      <point x="821" y="1023" type="line"/>
      <point x="86" y="1023" type="line"/>
      <point x="86" y="924" type="line"/>
      <point x="660" y="924" type="line"/>
      <point x="66" y="89" type="line"/>
    </contour>
  </outline>
</glyph>
<glyph name="braceleft" format="1">
  <advance width="644"/>
  <unicode hex="007B"/>
  <outline>
    <contour>
      <point x="606" y="-130" type="curve"/>
      <point x="606" y="-44" type="line"/>
      <point x="345.985" y="-44"/>
      <point x="345" y="35.7774"/>
      <point x="345" y="373.227" type="curve" smooth="yes"/>
      <point x="345" y="381" type="line" smooth="yes"/>
      <point x="345" y="563"/>
      <point x="316" y="676"/>
      <point x="187" y="707" type="curve"/>
      <point x="316" y="738"/>
      <point x="345" y="851"/>
      <point x="345" y="1033" type="curve" smooth="yes"/>
      <point x="345" y="1040.77" type="line" smooth="yes"/>
      <point x="345" y="1378.22"/>
      <point x="345.985" y="1458"/>
      <point x="606" y="1458" type="curve"/>
      <point x="606" y="1544" type="line"/>
      <point x="228" y="1544"/>
      <point x="202" y="1401"/>
      <point x="202" y="1032" type="curve" smooth="yes"/>
      <point x="202" y="1028.9"/>
      <point x="202.001" y="1025.8"/>
      <point x="202.001" y="1022.69" type="curve" smooth="yes"/>
      <point x="202.001" y="894.585"/>
      <point x="200.095" y="763.716"/>
      <point x="39" y="752" type="curve"/>
      <point x="39" y="662" type="line"/>
      <point x="200.095" y="650.284"/>
      <point x="202.001" y="519.415"/>
      <point x="202.001" y="391.31" type="curve" smooth="yes"/>
      <point x="202.001" y="388.205"/>
      <point x="202" y="385.101"/>
      <point x="202" y="382" type="curve" smooth="yes"/>
      <point x="202" y="14"/>
      <point x="228" y="-130"/>
    </contour>
  </outline>
</glyph>
<glyph name="braceright" format="1">
  <advance width="644"/>
  <unicode hex="007D"/>
  <outline>
    <contour>
      <point x="39" y="-130" type="line"/>
      <point x="417" y="-130"/>
      <point x="443" y="14"/>
      <point x="443" y="382" type="curve" smooth="yes"/>
      <point x="443" y="513"/>
      <point x="441" y="650"/>
      <point x="606" y="662" type="curve"/>
      <point x="606" y="752" type="line"/>
      <point x="441" y="764"/>
      <point x="443" y="901"/>
      <point x="443" y="1032" type="curve" smooth="yes"/>
      <point x="443" y="1401"/>
      <point x="417" y="1544"/>
      <point x="39" y="1544" type="curve"/>
      <point x="39" y="1458" type="line"/>
      <point x="301" y="1458"/>
      <point x="300" y="1377"/>
      <point x="300" y="1033" type="curve" smooth="yes"/>
      <point x="300" y="851"/>
      <point x="329" y="738"/>
      <point x="458" y="707" type="curve"/>
      <point x="329" y="676"/>
      <point x="300" y="563"/>
      <point x="300" y="381" type="curve" smooth="yes"/>
      <point x="300" y="37"/>
      <point x="301" y="-44"/>
      <point x="39" y="-44" type="curve"/>
    </contour>
  </outline>
</glyph>
<glyph name="asciitilde" format="1">
  <advance width="962"/>
  <unicode hex="007E"/>
  <outline>
    <contour>
      <point x="748" y="821" type="curve" smooth="yes"/>
      <point x="655.973" y="821"/>
      <point x="319.712" y="949.146"/>
      <point x="189.655" y="949.146" type="curve" smooth="yes"/>
      <point x="110.215" y="949.146"/>
      <point x="34.9248" y="914.211"/>
      <point x="22" y="710" type="curve"/>
      <point x="134" y="710" type="line"/>
      <point x="155" y="823"/>
      <point x="180" y="830"/>
      <point x="212" y="830" type="curve" smooth="yes"/>
      <point x="309" y="830"/>
      <point x="607" y="712"/>
      <point x="755" y="696" type="curve" smooth="yes"/>
      <point x="761.976" y="695.348"/>
      <point x="768.79" y="695.015"/>
      <point x="775.436" y="695.015" type="curve" smooth="yes"/>
      <point x="870.742" y="695.015"/>
      <point x="931.587" y="763.517"/>
      <point x="940" y="943" type="curve"/>
      <point x="827" y="943" type="line"/>
      <point x="809" y="850"/>
      <point x="805" y="821"/>
    </contour>
  </outline>
</glyph>
<glyph name="cent" format="1">
  <advance width="982"/>
  <unicode hex="00A2"/>
  <outline>
    <contour>
      <point x="484" y="-208" type="line"/>
      <point x="572" y="-208" type="line"/>
      <point x="572" y="1253" type="line"/>
      <point x="484" y="1253" type="line"/>
    </contour>
    <component base="c"/>
  </outline>
</glyph>
<glyph name="yen" format="1">
  <advance width="1162"/>
  <unicode hex="00A5"/>
  <outline>
    <contour>
      <point x="260" y="337" type="line"/>
      <point x="906" y="337" type="line"/>
      <point x="906" y="419" type="line"/>
      <point x="260" y="419" type="line"/>
    </contour>
    <contour>
      <point x="260" y="544" type="line"/>
      <point x="906" y="544" type="line"/>
      <point x="906" y="626" type="line"/>
      <point x="260" y="626" type="line"/>
    </contour>
    <component base="Y"/>
  </outline>
</glyph>
<glyph name="brokenbar" format="1">
  <advance width="416"/>
  <unicode hex="00A6"/>
  <outline>
    <contour>
      <point x="138" y="-198" type="line"/>
      <point x="277" y="-198" type="line"/>
      <point x="277" y="462" type="line"/>
      <point x="138" y="462" type="line"/>
    </contour>
    <contour>
      <point x="138" y="854" type="line"/>
      <point x="277" y="854" type="line"/>
      <point x="277" y="1504" type="line"/>
      <point x="138" y="1504" type="line"/>
    </contour>
  </outline>
</glyph>
<glyph name="section" format="1">
  <advance width="1005"/>
  <unicode hex="00A7"/>
  <outline>
    <contour>
      <point x="308" y="986" type="curve"/>
      <point x="213.488" y="896.569"/>
      <point x="175.927" y="822.681"/>
      <point x="175.927" y="749.226" type="curve" smooth="yes"/>
      <point x="175.927" y="447.942"/>
      <point x="780.688" y="502.791"/>
      <point x="780.688" y="272.645" type="curve" smooth="yes"/>
      <point x="780.688" y="265.696"/>
      <point x="780.136" y="258.487"/>
      <point x="779" y="251" type="curve" smooth="yes"/>
      <point x="762" y="139"/>
      <point x="681" y="87"/>
      <point x="535" y="87" type="curve" smooth="yes"/>
      <point x="369" y="87"/>
      <point x="267" y="159"/>
      <point x="224" y="308" type="curve"/>
      <point x="127" y="273" type="line"/>
      <point x="165" y="49"/>
      <point x="365" y="-25"/>
      <point x="530" y="-25" type="curve" smooth="yes"/>
      <point x="749" y="-25"/>
      <point x="880" y="67"/>
      <point x="898" y="252" type="curve" smooth="yes"/>
      <point x="898.757" y="259.265"/>
      <point x="899.124" y="266.461"/>
      <point x="899.124" y="273.579" type="curve" smooth="yes"/>
      <point x="899.124" y="360.519"/>
      <point x="844.324" y="435.784"/>
      <point x="775" y="482" type="curve"/>
      <point x="846.607" y="561.455"/>
      <point x="872.029" y="643.796"/>
      <point x="872.029" y="710.147" type="curve" smooth="yes"/>
      <point x="872.029" y="1032.17"/>
      <point x="297.771" y="970.067"/>
      <point x="297.771" y="1207.01" type="curve" smooth="yes"/>
      <point x="297.771" y="1321.96"/>
      <point x="374.788" y="1384"/>
      <point x="527" y="1384" type="curve" smooth="yes"/>
      <point x="664" y="1384"/>
      <point x="735" y="1344"/>
      <point x="798" y="1232" type="curve"/>
      <point x="798" y="1233"/>
      <point x="884" y="1286"/>
      <point x="884" y="1286" type="curve"/>
      <point x="810" y="1438"/>
      <point x="704" y="1491"/>
      <point x="527" y="1491" type="curve" smooth="yes"/>
      <point x="308" y="1491"/>
      <point x="166" y="1391"/>
      <point x="166" y="1211" type="curve" smooth="yes"/>
      <point x="166" y="1093"/>
      <point x="240" y="1027"/>
    </contour>
    <contour>
      <point x="683" y="529" type="curve"/>
      <point x="499.03" y="617.687"/>
      <point x="296.794" y="640.296"/>
      <point x="296.794" y="761.417" type="curve" smooth="yes"/>
      <point x="296.794" y="805.547"/>
      <point x="323.641" y="862.754"/>
      <point x="388" y="941" type="curve"/>
      <point x="603.237" y="859.559"/>
      <point x="748.15" y="829.935"/>
      <point x="748.15" y="709.871" type="curve" smooth="yes"/>
      <point x="748.15" y="664.82"/>
      <point x="727.747" y="607.034"/>
    </contour>
  </outline>
</glyph>
<glyph name="dieresis" format="1">
  <advance width="860"/>
  <unicode hex="00A8"/>
  <outline>
    <contour>
      <point x="141" y="1194" type="line"/>
      <point x="300" y="1194" type="line"/>
      <point x="300" y="1362" type="line"/>
      <point x="141" y="1362" type="line"/>
    </contour>
    <contour>
      <point x="513" y="1194" type="line"/>
      <point x="672" y="1194" type="line"/>
      <point x="672" y="1362" type="line"/>
      <point x="513" y="1362" type="line"/>
    </contour>
    <contour>
      <point x="430" y="1023" type="move" name="_top"/>
    </contour>
  </outline>
</glyph>
<glyph name="ordfeminine" format="1">
  <advance width="946"/>
  <unicode hex="00AA"/>
  <outline>
    <contour>
      <point x="396" y="583" type="curve" smooth="yes"/>
      <point x="527" y="583"/>
      <point x="606" y="629"/>
      <point x="680" y="692" type="curve"/>
      <point x="693" y="603" type="line"/>
      <point x="795" y="603" type="line"/>
      <point x="795" y="1148" type="line" smooth="yes"/>
      <point x="795" y="1366"/>
      <point x="688" y="1474"/>
      <point x="495" y="1474" type="curve" smooth="yes"/>
      <point x="398" y="1474"/>
      <point x="260" y="1422"/>
      <point x="185" y="1340" type="curve"/>
      <point x="185" y="1340"/>
      <point x="259" y="1274"/>
      <point x="259" y="1273" type="curve"/>
      <point x="316" y="1329"/>
      <point x="409" y="1378"/>
      <point x="497" y="1378" type="curve" smooth="yes"/>
      <point x="592" y="1378"/>
      <point x="678" y="1327"/>
      <point x="678" y="1178" type="curve" smooth="yes"/>
      <point x="678" y="1110" type="line"/>
      <point x="580" y="1097" type="line"/>
      <point x="338" y="1066"/>
      <point x="158" y="1018"/>
      <point x="158" y="804" type="curve" smooth="yes"/>
      <point x="158" y="656"/>
      <point x="272" y="584"/>
    </contour>
    <contour>
      <point x="416.157" y="658.455" type="curve" smooth="yes"/>
      <point x="307.685" y="658.455"/>
      <point x="266.251" y="728"/>
      <point x="266.251" y="809.174" type="curve" smooth="yes"/>
      <point x="266.251" y="937.222"/>
      <point x="347.983" y="982.702"/>
      <point x="574" y="1012" type="curve"/>
      <point x="678" y="1026" type="line"/>
      <point x="678" y="767" type="line"/>
      <point x="607.383" y="704.531"/>
      <point x="496.603" y="658.455"/>
    </contour>
  </outline>
</glyph>
<glyph name="guillemotleft" format="1">
  <advance width="946"/>
  <unicode hex="00AB"/>
  <outline>
    <contour>
      <point x="503" y="252" type="line"/>
      <point x="503" y="386" type="line"/>
      <point x="152" y="650" type="line"/>
      <point x="503" y="912" type="line"/>
      <point x="503" y="1047" type="line"/>
      <point x="59" y="743" type="line"/>
      <point x="59" y="556" type="line"/>
    </contour>
    <contour>
      <point x="936" y="252" type="line"/>
      <point x="936" y="386" type="line"/>
      <point x="585" y="650" type="line"/>
      <point x="936" y="912" type="line"/>
      <point x="936" y="1047" type="line"/>
      <point x="492" y="743" type="line"/>
      <point x="492" y="556" type="line"/>
    </contour>
  </outline>
</glyph>
<glyph name="logicalnot" format="1">
  <advance width="1024"/>
  <unicode hex="00AC"/>
  <outline>
    <contour>
      <point x="805" y="336" type="line"/>
      <point x="887" y="336" type="line"/>
      <point x="887" y="756" type="line"/>
      <point x="135" y="756" type="line"/>
      <point x="135" y="674" type="line"/>
      <point x="805" y="674" type="line"/>
    </contour>
  </outline>
</glyph>
<glyph name="macron" format="1">
  <advance width="724"/>
  <unicode hex="00AF"/>
  <outline>
    <contour>
      <point x="128" y="1267" type="line"/>
      <point x="582" y="1267" type="line"/>
      <point x="582" y="1362" type="line"/>
      <point x="128" y="1362" type="line"/>
    </contour>
    <contour>
      <point x="362" y="1023" type="move" name="_top"/>
    </contour>
  </outline>
</glyph>
<glyph name="degree" format="1">
  <advance width="483"/>
  <unicode hex="00B0"/>
  <outline>
    <contour>
      <point x="240" y="1114" type="curve" smooth="yes"/>
      <point x="144" y="1114"/>
      <point x="96" y="1193"/>
      <point x="96" y="1267" type="curve" smooth="yes"/>
      <point x="96" y="1341"/>
      <point x="144" y="1420"/>
      <point x="240" y="1420" type="curve" smooth="yes"/>
      <point x="336" y="1420"/>
      <point x="384" y="1341"/>
      <point x="384" y="1267" type="curve" smooth="yes"/>
      <point x="384" y="1193"/>
      <point x="336" y="1114"/>
    </contour>
    <contour>
      <point x="240" y="1034" type="curve" smooth="yes"/>
      <point x="386" y="1034"/>
      <point x="478" y="1144"/>
      <point x="478" y="1267" type="curve" smooth="yes"/>
      <point x="478" y="1390"/>
      <point x="386" y="1500"/>
      <point x="240" y="1500" type="curve" smooth="yes"/>
      <point x="94" y="1500"/>
      <point x="2" y="1390"/>
      <point x="2" y="1267" type="curve" smooth="yes"/>
      <point x="2" y="1144"/>
      <point x="94" y="1034"/>
    </contour>
  </outline>
</glyph>
<glyph name="plusminus" format="1">
  <advance width="860"/>
  <unicode hex="00B1"/>
  <outline>
    <contour>
      <point x="382" y="423" type="line"/>
      <point x="479" y="423" type="line"/>
      <point x="479" y="675" type="line"/>
      <point x="730" y="675" type="line"/>
      <point x="730" y="770" type="line"/>
      <point x="479" y="770" type="line"/>
      <point x="479" y="1023" type="line"/>
      <point x="382" y="1023" type="line"/>
      <point x="382" y="770" type="line"/>
      <point x="130" y="770" type="line"/>
      <point x="130" y="675" type="line"/>
      <point x="382" y="675" type="line"/>
    </contour>
    <contour>
      <point x="129" y="251" type="line"/>
      <point x="730" y="251" type="line"/>
      <point x="730" y="332" type="line"/>
      <point x="129" y="332" type="line"/>
    </contour>
  </outline>
</glyph>
<glyph name="threesuperior" format="1">
  <advance width="725"/>
  <unicode hex="00B3"/>
  <outline>
    <contour>
      <point x="344" y="772" type="curve" smooth="yes"/>
      <point x="500" y="772"/>
      <point x="583" y="866"/>
      <point x="583" y="980" type="curve"/>
      <point x="578" y="1059"/>
      <point x="541" y="1122"/>
      <point x="431" y="1154" type="curve"/>
      <point x="509" y="1182"/>
      <point x="551" y="1249"/>
      <point x="551" y="1312" type="curve" smooth="yes"/>
      <point x="551" y="1396"/>
      <point x="478" y="1480"/>
      <point x="339" y="1480" type="curve" smooth="yes"/>
      <point x="260" y="1480"/>
      <point x="158" y="1440"/>
      <point x="132" y="1361" type="curve"/>
      <point x="202" y="1311" type="line"/>
      <point x="227" y="1370"/>
      <point x="287" y="1398"/>
      <point x="339" y="1398" type="curve" smooth="yes"/>
      <point x="413" y="1398"/>
      <point x="444" y="1359"/>
      <point x="444" y="1302" type="curve" smooth="yes"/>
      <point x="444" y="1240"/>
      <point x="412" y="1193"/>
      <point x="296" y="1191" type="curve"/>
      <point x="296" y="1107" type="line"/>
      <point x="432.042" y="1107"/>
      <point x="478.015" y="1049.75"/>
      <point x="478.015" y="970.377" type="curve" smooth="yes"/>
      <point x="478.015" y="915.846"/>
      <point x="428.253" y="858"/>
      <point x="353" y="858" type="curve" smooth="yes"/>
      <point x="351.829" y="857.984"/>
      <point x="350.66" y="857.976"/>
      <point x="349.491" y="857.976" type="curve" smooth="yes"/>
      <point x="277.798" y="857.976"/>
      <point x="210.583" y="888.331"/>
      <point x="185" y="970" type="curve"/>
      <point x="112" y="930" type="line"/>
      <point x="140" y="816"/>
      <point x="256" y="773"/>
    </contour>
  </outline>
</glyph>
<glyph name="acute" format="1">
  <advance width="496"/>
  <unicode hex="00B4"/>
  <outline>
    <contour>
      <point x="82" y="1156" type="line"/>
      <point x="171" y="1155" type="line"/>
      <point x="473" y="1475" type="line"/>
      <point x="287" y="1475" type="line"/>
    </contour>
    <contour>
      <point x="188" y="1023" type="move" name="_top"/>
    </contour>
  </outline>
</glyph>
<glyph name="paragraph" format="1">
  <advance width="1038"/>
  <unicode hex="00B6"/>
  <outline>
    <contour>
      <point x="477" y="0" type="line"/>
      <point x="597" y="0" type="line"/>
      <point x="597" y="1355" type="line"/>
      <point x="698" y="1355" type="line"/>
      <point x="698" y="0" type="line"/>
      <point x="818" y="0" type="line"/>
      <point x="818" y="1355" type="line"/>
      <point x="970" y="1355" type="line"/>
      <point x="970" y="1464" type="line"/>
      <point x="634" y="1464" type="line" smooth="yes"/>
      <point x="190" y="1464"/>
      <point x="114" y="1303"/>
      <point x="114" y="1124" type="curve" smooth="yes"/>
      <point x="114" y="928"/>
      <point x="262" y="799"/>
      <point x="477" y="799" type="curve"/>
    </contour>
  </outline>
</glyph>
<glyph name="middot" format="1">
  <advance width="600"/>
  <unicode hex="00B7"/>
  <outline>
    <contour>
      <point x="230" y="545" type="line"/>
      <point x="384" y="545" type="line"/>
      <point x="384" y="757" type="line"/>
      <point x="230" y="757" type="line"/>
    </contour>
  </outline>
</glyph>
<glyph name="ordmasculine" format="1">
  <advance width="1000"/>
  <unicode hex="00BA"/>
  <outline>
    <contour>
      <point x="517" y="677" type="curve" smooth="yes"/>
      <point x="337" y="677"/>
      <point x="265" y="856"/>
      <point x="265" y="1031" type="curve" smooth="yes"/>
      <point x="265" y="1203"/>
      <point x="337" y="1381"/>
      <point x="516" y="1381" type="curve" smooth="yes"/>
      <point x="694" y="1381"/>
      <point x="768" y="1203"/>
      <point x="768" y="1029" type="curve" smooth="yes"/>
      <point x="768" y="855"/>
      <point x="694" y="677"/>
    </contour>
    <contour>
      <point x="516" y="583" type="curve" smooth="yes"/>
      <point x="735" y="583"/>
      <point x="891" y="739"/>
      <point x="891" y="1031" type="curve" smooth="yes"/>
      <point x="891" y="1330"/>
      <point x="724" y="1474"/>
      <point x="517" y="1474" type="curve" smooth="yes"/>
      <point x="307" y="1474"/>
      <point x="141" y="1329"/>
      <point x="141" y="1028" type="curve" smooth="yes"/>
      <point x="141" y="738"/>
      <point x="297" y="583"/>
    </contour>
  </outline>
</glyph>
<glyph name="guillemotright" format="1">
  <advance width="946"/>
  <unicode hex="00BB"/>
  <outline>
    <contour>
      <point x="59" y="252" type="line"/>
      <point x="503" y="556" type="line"/>
      <point x="503" y="743" type="line"/>
      <point x="59" y="1047" type="line"/>
      <point x="59" y="912" type="line"/>
      <point x="410" y="650" type="line"/>
      <point x="59" y="386" type="line"/>
    </contour>
    <contour>
      <point x="492" y="252" type="line"/>
      <point x="936" y="556" type="line"/>
      <point x="936" y="743" type="line"/>
      <point x="492" y="1047" type="line"/>
      <point x="492" y="912" type="line"/>
      <point x="843" y="650" type="line"/>
      <point x="492" y="386" type="line"/>
    </contour>
  </outline>
</glyph>
<glyph name="onequarter" format="1">
  <advance width="1403"/>
  <unicode hex="00BC"/>
  <outline>
    <contour>
      <point x="1144" y="0" type="line"/>
      <point x="1254" y="0" type="line"/>
      <point x="1254" y="155" type="line"/>
      <point x="1353" y="155" type="line"/>
      <point x="1353" y="233" type="line"/>
      <point x="1254" y="233" type="line"/>
      <point x="1254" y="693" type="line"/>
      <point x="1115" y="693" type="line"/>
      <point x="792" y="220" type="line"/>
      <point x="792" y="155" type="line"/>
      <point x="1144" y="155" type="line"/>
    </contour>
    <contour>
      <point x="248" y="769" type="line"/>
      <point x="355" y="769" type="line"/>
      <point x="355" y="1464" type="line"/>
      <point x="257" y="1464" type="line"/>
      <point x="110" y="1398" type="line"/>
      <point x="130" y="1312" type="line"/>
      <point x="248" y="1370" type="line"/>
    </contour>
    <contour>
      <point x="156" y="-14" type="line"/>
      <point x="1391" y="1415" type="line"/>
      <point x="1319" y="1478" type="line"/>
      <point x="83" y="49" type="line"/>
    </contour>
    <contour>
      <point x="900" y="233" type="line"/>
      <point x="1144" y="589" type="line"/>
      <point x="1144" y="233" type="line"/>
    </contour>
  </outline>
</glyph>
<glyph name="onehalf" format="1">
  <advance width="1567"/>
  <unicode hex="00BD"/>
  <outline>
    <contour>
      <point x="1203" y="624" type="curve" smooth="yes"/>
      <point x="1273.33" y="624"/>
      <point x="1344.77" y="573.499"/>
      <point x="1344.77" y="470.449" type="curve" smooth="yes"/>
      <point x="1344.77" y="356.888"/>
      <point x="1216.93" y="285.686"/>
      <point x="970" y="78" type="curve"/>
      <point x="971" y="0" type="line"/>
      <point x="1444" y="0" type="line"/>
      <point x="1444" y="75" type="line"/>
      <point x="1094" y="75" type="line"/>
      <point x="1301.97" y="257.094"/>
      <point x="1443.81" y="332.641"/>
      <point x="1443.81" y="474.177" type="curve" smooth="yes"/>
      <point x="1443.81" y="629.395"/>
      <point x="1322.73" y="712"/>
      <point x="1204" y="712" type="curve" smooth="yes"/>
      <point x="1098" y="712"/>
      <point x="993" y="658"/>
      <point x="950" y="537" type="curve"/>
      <point x="1035" y="494" type="line"/>
      <point x="1053" y="578"/>
      <point x="1132" y="624"/>
    </contour>
    <contour>
      <point x="314" y="769" type="line"/>
      <point x="421" y="769" type="line"/>
      <point x="421" y="1464" type="line"/>
      <point x="323" y="1464" type="line"/>
      <point x="176" y="1398" type="line"/>
      <point x="196" y="1312" type="line"/>
      <point x="314" y="1370" type="line"/>
    </contour>
    <contour>
      <point x="200" y="-14" type="line"/>
      <point x="1435" y="1415" type="line"/>
      <point x="1363" y="1478" type="line"/>
      <point x="127" y="49" type="line"/>
    </contour>
  </outline>
</glyph>
<glyph name="multiply" format="1">
  <advance width="734"/>
  <unicode hex="00D7"/>
  <outline>
    <contour>
      <point x="200" y="194" type="line"/>
      <point x="368" y="361" type="line"/>
      <point x="535" y="194" type="line"/>
      <point x="622" y="281" type="line"/>
      <point x="456" y="449" type="line"/>
      <point x="622" y="617" type="line"/>
      <point x="535" y="704" type="line"/>
      <point x="368" y="537" type="line"/>
      <point x="200" y="704" type="line"/>
      <point x="113" y="617" type="line"/>
      <point x="279" y="449" type="line"/>
      <point x="113" y="281" type="line"/>
    </contour>
  </outline>
</glyph>
<glyph name="Oslash" format="1">
  <advance width="1497"/>
  <unicode hex="00D8"/>
  <outline>
    <contour>
      <point x="316" y="-203" type="line"/>
      <point x="1206" y="1615" type="line"/>
      <point x="1126" y="1657" type="line"/>
      <point x="235" y="-161" type="line"/>
    </contour>
    <component base="O"/>
    <contour>
      <point x="748.5" y="1464" type="move" name="top"/>
    </contour>
  </outline>
</glyph>
<glyph name="germandbls" format="1">
  <advance width="1199"/>
  <unicode hex="00DF"/>
  <outline>
    <contour>
      <point x="133" y="0" type="line"/>
      <point x="271" y="0" type="line"/>
      <point x="271" y="1141" type="line" smooth="yes"/>
      <point x="271" y="1308"/>
      <point x="420" y="1393"/>
      <point x="565" y="1393" type="curve" smooth="yes"/>
      <point x="722" y="1393"/>
      <point x="809" y="1326"/>
      <point x="809" y="1209" type="curve" smooth="yes"/>
      <point x="809" y="996"/>
      <point x="446" y="997"/>
      <point x="442" y="816" type="curve" smooth="yes"/>
      <point x="437" y="588"/>
      <point x="992" y="574"/>
      <point x="982" y="334" type="curve" smooth="yes"/>
      <point x="977" y="207"/>
      <point x="911" y="111"/>
      <point x="441" y="111" type="curve"/>
      <point x="441" y="0" type="line"/>
      <point x="481" y="0" type="line" smooth="yes"/>
      <point x="1020" y="0"/>
      <point x="1121" y="110"/>
      <point x="1121" y="336" type="curve" smooth="yes"/>
      <point x="1120" y="654"/>
      <point x="573" y="681"/>
      <point x="579" y="823" type="curve" smooth="yes"/>
      <point x="581" y="891"/>
      <point x="938" y="951"/>
      <point x="938" y="1203" type="curve" smooth="yes"/>
      <point x="938" y="1359"/>
      <point x="829" y="1493"/>
      <point x="568" y="1492" type="curve" smooth="yes"/>
      <point x="352" y="1492"/>
      <point x="133" y="1373"/>
      <point x="133" y="1151" type="curve" smooth="yes"/>
    </contour>
  </outline>
</glyph>
<glyph name="ae" format="1">
  <advance width="1667"/>
  <unicode hex="00E6"/>
  <outline>
    <contour>
      <point x="834" y="1023" type="move" name="top"/>
    </contour>
    <contour>
      <point x="84.602" y="271.628" type="curve" smooth="yes"/>
      <point x="84.602" y="63.9608"/>
      <point x="233.117" y="-24"/>
      <point x="429" y="-24" type="curve" smooth="yes"/>
      <point x="640" y="-24"/>
      <point x="782" y="53"/>
      <point x="832" y="224" type="curve"/>
      <point x="886" y="47"/>
      <point x="1055" y="-24"/>
      <point x="1195" y="-24" type="curve" smooth="yes"/>
      <point x="1380" y="-23"/>
      <point x="1515" y="83"/>
      <point x="1570" y="234" type="curve"/>
      <point x="1479" y="274" type="line"/>
      <point x="1449" y="200"/>
      <point x="1378" y="73"/>
      <point x="1199" y="73" type="curve" smooth="yes"/>
      <point x="1198.41" y="72.9972"/>
      <point x="1197.82" y="72.9958"/>
      <point x="1197.22" y="72.9958" type="curve" smooth="yes"/>
      <point x="986.531" y="72.9958"/>
      <point x="902.983" y="250.688"/>
      <point x="897" y="496" type="curve"/>
      <point x="1583" y="508" type="line"/>
      <point x="1585" y="525"/>
      <point x="1586" y="563"/>
      <point x="1586" y="572" type="curve" smooth="yes"/>
      <point x="1586" y="844"/>
      <point x="1478" y="1044"/>
      <point x="1193" y="1044" type="curve" smooth="yes"/>
      <point x="1046" y="1044"/>
      <point x="911" y="967"/>
      <point x="848" y="810" type="curve"/>
      <point x="805" y="974"/>
      <point x="701" y="1044"/>
      <point x="518" y="1044" type="curve" smooth="yes"/>
      <point x="366" y="1044"/>
      <point x="248" y="1006"/>
      <point x="134" y="927" type="curve"/>
      <point x="185" y="844" type="line"/>
      <point x="267.464" y="897.08"/>
      <point x="356.217" y="947.465"/>
      <point x="504.91" y="947.465" type="curve" smooth="yes"/>
      <point x="722.239" y="947.465"/>
      <point x="760.87" y="857.447"/>
      <point x="764" y="581" type="curve"/>
      <point x="559" y="578" type="line" smooth="yes"/>
      <point x="262.105" y="573.133"/>
      <point x="84.602" y="506.674"/>
    </contour>
    <contour>
      <point x="436.652" y="72.9871" type="curve" smooth="yes"/>
      <point x="301.508" y="72.9871"/>
      <point x="219.383" y="136.243"/>
      <point x="219.383" y="276.973" type="curve" smooth="yes"/>
      <point x="219.383" y="442.875"/>
      <point x="354.207" y="479.187"/>
      <point x="565" y="484" type="curve" smooth="yes"/>
      <point x="764" y="488" type="line"/>
      <point x="764" y="419" type="line" smooth="yes"/>
      <point x="764" y="149"/>
      <point x="646" y="73"/>
      <point x="440" y="73" type="curve" smooth="yes"/>
      <point x="438.88" y="72.9914"/>
      <point x="437.764" y="72.9871"/>
    </contour>
    <contour>
      <point x="898" y="587" type="line"/>
      <point x="905" y="806"/>
      <point x="1020" y="947"/>
      <point x="1197" y="947" type="curve" smooth="yes"/>
      <point x="1378" y="947"/>
      <point x="1460" y="837"/>
      <point x="1470" y="598" type="curve"/>
    </contour>
  </outline>
</glyph>
<glyph name="eth" format="1">
  <advance width="1053"/>
  <unicode hex="00F0"/>
  <outline>
    <contour>
      <point x="507.006" y="908.017" type="curve" smooth="yes"/>
      <point x="295.953" y="908.017"/>
      <point x="97" y="746.97"/>
      <point x="97" y="454" type="curve" smooth="yes"/>
      <point x="97" y="208"/>
      <point x="232" y="-24"/>
      <point x="518" y="-24" type="curve" smooth="yes"/>
      <point x="834" y="-24"/>
      <point x="956" y="213"/>
      <point x="956" y="529" type="curve" smooth="yes"/>
      <point x="956" y="775"/>
      <point x="900" y="1047"/>
      <point x="725" y="1227" type="curve"/>
      <point x="918" y="1353" type="line"/>
      <point x="868" y="1424" type="line"/>
      <point x="658" y="1287" type="line"/>
      <point x="541" y="1377"/>
      <point x="381" y="1432"/>
      <point x="169" y="1432" type="curve"/>
      <point x="169" y="1343" type="line"/>
      <point x="340" y="1343"/>
      <point x="468" y="1296"/>
      <point x="563" y="1225" type="curve"/>
      <point x="382" y="1107" type="line"/>
      <point x="432" y="1036" type="line"/>
      <point x="632" y="1166" type="line"/>
      <point x="746" y="1050"/>
      <point x="797" y="896"/>
      <point x="813" y="772" type="curve"/>
      <point x="732.941" y="865.897"/>
      <point x="620.643" y="908.017"/>
    </contour>
    <contour>
      <point x="826" y="511" type="curve" smooth="yes"/>
      <point x="826" y="256.419"/>
      <point x="738.74" y="79.9944"/>
      <point x="524.12" y="79.9944" type="curve" smooth="yes"/>
      <point x="357.061" y="79.9944"/>
      <point x="232" y="212.855"/>
      <point x="232" y="441" type="curve" smooth="yes"/>
      <point x="232" y="675"/>
      <point x="365" y="803"/>
      <point x="523" y="803" type="curve" smooth="yes"/>
      <point x="630" y="803"/>
      <point x="727" y="753"/>
      <point x="819" y="655" type="curve"/>
      <point x="825" y="629"/>
      <point x="826" y="535"/>
    </contour>
  </outline>
</glyph>
<glyph name="divide" format="1">
  <advance width="1024"/>
  <unicode hex="00F7"/>
  <outline>
    <contour>
      <point x="398" y="171" type="line"/>
      <point x="562" y="171" type="line"/>
      <point x="562" y="384" type="line"/>
      <point x="398" y="384" type="line"/>
    </contour>
    <contour>
      <point x="101" y="553" type="line"/>
      <point x="851" y="553" type="line"/>
      <point x="851" y="647" type="line"/>
      <point x="101" y="647" type="line"/>
    </contour>
    <contour>
      <point x="398" y="809" type="line"/>
      <point x="562" y="809" type="line"/>
      <point x="562" y="1024" type="line"/>
      <point x="398" y="1024" type="line"/>
    </contour>
  </outline>
</glyph>
<glyph name="oslash" format="1">
  <advance width="1104"/>
  <unicode hex="00F8"/>
  <outline>
    <component base="o"/>
    <contour>
      <point x="250" y="-197" type="line"/>
      <point x="902" y="1178" type="line"/>
      <point x="834" y="1214" type="line"/>
      <point x="181" y="-161" type="line"/>
    </contour>
  </outline>
</glyph>
<glyph name="dcroat" format="1">
  <advance width="1137"/>
  <unicode hex="0111"/>
  <outline>
    <contour>
      <point x="573" y="1204" type="line"/>
      <point x="1090" y="1204" type="line"/>
      <point x="1090" y="1285" type="line"/>
      <point x="573" y="1285" type="line"/>
    </contour>
    <component base="d"/>
  </outline>
</glyph>
<glyph name="hbar" format="1">
  <advance width="1117"/>
  <unicode hex="0127"/>
  <outline>
    <component base="h"/>
    <contour>
      <point x="1" y="1204" type="line"/>
      <point x="518" y="1204" type="line"/>
      <point x="518" y="1285" type="line"/>
      <point x="1" y="1285" type="line"/>
    </contour>
  </outline>
</glyph>
<glyph name="dotlessi" format="1">
  <advance width="407"/>
  <unicode hex="0131"/>
  <outline>
    <contour>
      <point x="214" y="1023" type="move" name="top"/>
    </contour>
    <contour>
      <point x="140" y="0" type="line"/>
      <point x="275" y="0" type="line"/>
      <point x="275" y="1023" type="line"/>
      <point x="140" y="1023" type="line"/>
    </contour>
  </outline>
</glyph>
<glyph name="kgreenlandic" format="1">
  <advance width="1010"/>
  <unicode hex="0138"/>
  <outline>
    <contour>
      <point x="861" y="0" type="line"/>
      <point x="1013" y="0" type="line"/>
      <point x="580" y="606" type="line"/>
      <point x="954" y="1023" type="line"/>
      <point x="800" y="1023" type="line"/>
      <point x="281" y="456.186" type="line"/>
      <point x="281" y="1023" type="line"/>
      <point x="146" y="1023" type="line"/>
      <point x="146" y="0" type="line"/>
      <point x="281" y="0" type="line"/>
      <point x="281" y="317.727" type="line"/>
      <point x="489" y="533" type="line"/>
    </contour>
  </outline>
</glyph>
<glyph name="Lslash" format="1">
  <advance width="1055"/>
  <unicode hex="0141"/>
  <outline>
    <component base="L"/>
    <contour>
      <point x="-20" y="648" type="line"/>
      <point x="584" y="908" type="line"/>
      <point x="584" y="1024" type="line"/>
      <point x="-20" y="764" type="line"/>
    </contour>
  </outline>
</glyph>
<glyph name="Eng" format="1">
  <advance width="1499"/>
  <unicode hex="014A"/>
  <outline>
    <contour>
      <point x="920" y="-554" type="line"/>
      <point x="1201" y="-551"/>
      <point x="1346" y="-364"/>
      <point x="1346" y="-83" type="curve" smooth="yes"/>
      <point x="1346" y="1464" type="line"/>
      <point x="1223" y="1464" type="line"/>
      <point x="1223" y="210" type="line"/>
      <point x="309" y="1464" type="line"/>
      <point x="154" y="1464" type="line"/>
      <point x="154" y="0" type="line"/>
      <point x="280" y="0" type="line"/>
      <point x="280" y="1299" type="line"/>
      <point x="1220" y="0" type="line"/>
      <point x="1223" y="0" type="line"/>
      <point x="1223" y="-88" type="line" smooth="yes"/>
      <point x="1223" y="-310.22"/>
      <point x="1120.72" y="-452.005"/>
      <point x="920.117" y="-452.005" type="curve" smooth="yes"/>
      <point x="918" y="-452.005" type="line" smooth="yes"/>
    </contour>
  </outline>
</glyph>
<glyph name="OE" format="1">
  <advance width="2171"/>
  <unicode hex="0152"/>
  <outline>
    <contour>
      <point x="706" y="-25" type="curve" smooth="yes"/>
      <point x="954" y="-25"/>
      <point x="1118" y="82"/>
      <point x="1164" y="269" type="curve"/>
      <point x="1164" y="0" type="line"/>
      <point x="2121" y="0" type="line"/>
      <point x="2121" y="108" type="line"/>
      <point x="1303" y="108" type="line"/>
      <point x="1303" y="726" type="line"/>
      <point x="1994" y="726" type="line"/>
      <point x="1994" y="836" type="line"/>
      <point x="1303" y="836" type="line"/>
      <point x="1303" y="1357" type="line"/>
      <point x="2110" y="1357" type="line"/>
      <point x="2110" y="1464" type="line"/>
      <point x="1163" y="1464" type="line"/>
      <point x="1164" y="1221" type="line"/>
      <point x="1102" y="1395"/>
      <point x="957" y="1491"/>
      <point x="710" y="1491" type="curve" smooth="yes"/>
      <point x="331" y="1491"/>
      <point x="113" y="1282"/>
      <point x="113" y="740" type="curve" smooth="yes"/>
      <point x="113" y="186"/>
      <point x="323" y="-25"/>
    </contour>
    <contour>
      <point x="707" y="87" type="curve" smooth="yes"/>
      <point x="365" y="86"/>
      <point x="259" y="299"/>
      <point x="259" y="741" type="curve" smooth="yes"/>
      <point x="259" y="1130"/>
      <point x="351" y="1377"/>
      <point x="709" y="1380" type="curve" smooth="yes"/>
      <point x="1061" y="1382"/>
      <point x="1164" y="1243"/>
      <point x="1164" y="696" type="curve" smooth="yes"/>
      <point x="1164" y="267"/>
      <point x="1043" y="88"/>
    </contour>
  </outline>
</glyph>
<glyph name="Tbar" format="1">
  <advance width="1119"/>
  <unicode hex="0166"/>
  <outline>
    <contour>
      <point x="238" y="774" type="line"/>
      <point x="883" y="774" type="line"/>
      <point x="883" y="869" type="line"/>
      <point x="238" y="869" type="line"/>
    </contour>
    <component base="T"/>
  </outline>
</glyph>
<glyph name="tbar" format="1">
  <advance width="652"/>
  <unicode hex="0167"/>
  <outline>
    <component base="t"/>
    <contour>
      <point x="65" y="534" type="line"/>
      <point x="519" y="534" type="line"/>
      <point x="519" y="629" type="line"/>
      <point x="65" y="629" type="line"/>
    </contour>
  </outline>
</glyph>
<glyph name="dotlessj" format="1">
  <advance width="479"/>
  <unicode hex="0237"/>
  <outline>
    <contour>
      <point x="141" y="-320" type="curve" smooth="yes"/>
      <point x="322" y="-320"/>
      <point x="351" y="-208"/>
      <point x="351" y="-9" type="curve" smooth="yes"/>
      <point x="351" y="1023" type="line"/>
      <point x="216" y="1023" type="line"/>
      <point x="216" y="-91" type="line" smooth="yes"/>
      <point x="216" y="-183"/>
      <point x="179" y="-207"/>
      <point x="120" y="-207" type="curve" smooth="yes"/>
      <point x="65" y="-207"/>
      <point x="30" y="-188"/>
      <point x="4" y="-177" type="curve"/>
      <point x="-24" y="-279" type="line"/>
      <point x="16" y="-300"/>
      <point x="70" y="-320"/>
    </contour>
    <contour>
      <point x="293" y="1023" type="move" name="top"/>
    </contour>
  </outline>
</glyph>
<glyph name="circumflex" format="1">
  <advance width="838"/>
  <unicode hex="02C6"/>
  <outline>
    <contour>
      <point x="129" y="1154" type="line"/>
      <point x="221" y="1154" type="line"/>
      <point x="400" y="1411" type="line"/>
      <point x="579" y="1154" type="line"/>
      <point x="672" y="1154" type="line"/>
      <point x="484" y="1474" type="line"/>
      <point x="317" y="1474" type="line"/>
    </contour>
    <contour>
      <point x="419" y="1023" type="move" name="_top"/>
    </contour>
  </outline>
</glyph>
<glyph name="ring" format="1">
  <advance width="728"/>
  <unicode hex="02DA"/>
  <outline>
    <contour>
      <point x="361" y="1247" type="curve" smooth="yes"/>
      <point x="265" y="1247"/>
      <point x="216" y="1326"/>
      <point x="216" y="1400" type="curve" smooth="yes"/>
      <point x="216" y="1474"/>
      <point x="265" y="1553"/>
      <point x="361" y="1553" type="curve" smooth="yes"/>
      <point x="456" y="1553"/>
      <point x="505" y="1474"/>
      <point x="505" y="1400" type="curve" smooth="yes"/>
      <point x="505" y="1326"/>
      <point x="456" y="1247"/>
    </contour>
    <contour>
      <point x="361" y="1167" type="curve" smooth="yes"/>
      <point x="507" y="1167"/>
      <point x="598" y="1277"/>
      <point x="598" y="1400" type="curve" smooth="yes"/>
      <point x="598" y="1523"/>
      <point x="507" y="1633"/>
      <point x="361" y="1633" type="curve" smooth="yes"/>
      <point x="215" y="1633"/>
      <point x="123" y="1523"/>
      <point x="123" y="1400" type="curve" smooth="yes"/>
      <point x="123" y="1277"/>
      <point x="215" y="1167"/>
    </contour>
    <contour>
      <point x="364" y="1023" type="move" name="_top"/>
    </contour>
  </outline>
</glyph>
<glyph name="ogonek" format="1">
  <advance width="462"/>
  <unicode hex="02DB"/>
  <outline>
    <contour>
      <point x="280" y="0" type="move" name="_ogonek"/>
    </contour>
    <contour>
      <point x="341" y="-359" type="curve"/>
      <point x="341" y="-282" type="line"/>
      <point x="324.133" y="-285.861"/>
      <point x="309.496" y="-287.657"/>
      <point x="296.88" y="-287.657" type="curve" smooth="yes"/>
      <point x="247.411" y="-287.657"/>
      <point x="229" y="-260.042"/>
      <point x="229" y="-221" type="curve" smooth="yes"/>
      <point x="229" y="-163"/>
      <point x="277" y="-73"/>
      <point x="311" y="0" type="curve"/>
      <point x="243" y="0" type="line"/>
      <point x="177.385" y="-90.8509"/>
      <point x="116.911" y="-167.751"/>
      <point x="116.911" y="-245.728" type="curve" smooth="yes"/>
      <point x="116.911" y="-309.368"/>
      <point x="165.309" y="-369.083"/>
      <point x="264.641" y="-369.083" type="curve" smooth="yes"/>
      <point x="287.408" y="-369.083"/>
      <point x="312.851" y="-365.946"/>
    </contour>
  </outline>
</glyph>
<glyph name="hungarumlaut" format="1">
  <advance width="745"/>
  <unicode hex="02DD"/>
  <outline>
    <contour>
      <point x="91" y="1132" type="line"/>
      <point x="154" y="1132" type="line"/>
      <point x="380" y="1450" type="line"/>
      <point x="200" y="1450" type="line"/>
    </contour>
    <contour>
      <point x="353" y="1132" type="line"/>
      <point x="423" y="1132" type="line"/>
      <point x="678" y="1450" type="line"/>
      <point x="492" y="1450" type="line"/>
    </contour>
    <contour>
      <point x="253" y="1023" type="move" name="_top"/>
    </contour>
  </outline>
</glyph>
<glyph name="uni0307" format="1">
  <advance width="539"/>
  <unicode hex="0307"/>
  <outline>
    <contour>
      <point x="270" y="1268" type="curve" smooth="yes"/>
      <point x="351" y="1268"/>
      <point x="392" y="1331"/>
      <point x="392" y="1393" type="curve" smooth="yes"/>
      <point x="392" y="1455"/>
      <point x="351" y="1517"/>
      <point x="270" y="1517" type="curve" smooth="yes"/>
      <point x="189" y="1517"/>
      <point x="148" y="1455"/>
      <point x="148" y="1393" type="curve" smooth="yes"/>
      <point x="148" y="1331"/>
      <point x="189" y="1268"/>
    </contour>
    <contour>
      <point x="269.5" y="1023" type="move" name="_top"/>
    </contour>
  </outline>
</glyph>
<glyph name="dblgravecmb" format="1">
  <advance width="745"/>
  <unicode hex="030F"/>
  <outline>
    <contour>
      <point x="337" y="1154" type="line"/>
      <point x="406" y="1154" type="line"/>
      <point x="267" y="1472" type="line"/>
      <point x="81" y="1472" type="line"/>
    </contour>
    <contour>
      <point x="605" y="1154" type="line"/>
      <point x="668" y="1154" type="line"/>
      <point x="559" y="1472" type="line"/>
      <point x="379" y="1472" type="line"/>
    </contour>
    <contour>
      <point x="516" y="1023" type="move" name="_top"/>
    </contour>
  </outline>
</glyph>
<glyph name="breveinvertedcomb" format="1">
  <advance width="805"/>
  <unicode hex="0311"/>
  <outline>
    <contour>
      <point x="127" y="1184" type="curve"/>
      <point x="238" y="1184" type="line"/>
      <point x="238" y="1295"/>
      <point x="301" y="1339"/>
      <point x="402" y="1339" type="curve" smooth="yes"/>
      <point x="502" y="1339"/>
      <point x="566" y="1295"/>
      <point x="566" y="1184" type="curve"/>
      <point x="677" y="1184" type="line"/>
      <point x="673" y="1362"/>
      <point x="550" y="1437"/>
      <point x="402" y="1437" type="curve" smooth="yes"/>
      <point x="254" y="1437"/>
      <point x="131" y="1362"/>
    </contour>
  </outline>
</glyph>
<glyph name="commaaccent" format="1">
  <advance width="409"/>
  <unicode hex="0326"/>
  <outline>
    <contour>
      <point x="190" y="-478" type="line"/>
      <point x="223" y="-487"/>
      <point x="293" y="-368"/>
      <point x="293" y="-257" type="curve" smooth="yes"/>
      <point x="293" y="-95" type="line"/>
      <point x="100" y="-95" type="line"/>
      <point x="100" y="-256" type="line"/>
      <point x="210" y="-255" type="line"/>
      <point x="208" y="-303"/>
      <point x="206" y="-419"/>
      <point x="145" y="-463" type="curve"/>
    </contour>
  </outline>
</glyph>
<glyph name="Delta" format="1">
  <advance width="1332"/>
  <unicode hex="0394"/>
  <outline>
    <contour>
      <point x="121" y="0" type="line"/>
      <point x="1237" y="0" type="line"/>
      <point x="718" y="1482" type="line"/>
      <point x="641" y="1482" type="line"/>
    </contour>
    <contour>
      <point x="261" y="113" type="line"/>
      <point x="665" y="1307" type="line"/>
      <point x="1075" y="113" type="line"/>
    </contour>
  </outline>
</glyph>
<glyph name="Sigma" format="1">
  <advance width="1168"/>
  <unicode hex="03A3"/>
  <outline>
    <contour>
      <point x="1080" y="0" type="line"/>
      <point x="1080" y="101" type="line"/>
      <point x="203" y="101" type="line"/>
      <point x="752" y="685" type="line"/>
      <point x="752" y="749" type="line"/>
      <point x="234" y="1366" type="line"/>
      <point x="1080" y="1366" type="line"/>
      <point x="1080" y="1464" type="line"/>
      <point x="86" y="1464" type="line"/>
      <point x="86" y="1367" type="line"/>
      <point x="612" y="722" type="line"/>
      <point x="86" y="120" type="line"/>
      <point x="86" y="0" type="line"/>
    </contour>
  </outline>
</glyph>
<glyph name="mu" format="1">
  <advance width="1119"/>
  <unicode hex="03BC"/>
  <outline>
    <contour>
      <point x="122" y="-224" type="line"/>
      <point x="257" y="-224" type="line"/>
      <point x="257" y="1023" type="line"/>
      <point x="122" y="1023" type="line"/>
    </contour>
    <component base="u"/>
  </outline>
</glyph>
<glyph name="quoteleft" format="1">
  <advance width="330"/>
  <unicode hex="2018"/>
  <outline>
    <contour>
      <point x="31" y="992" type="line"/>
      <point x="228" y="992" type="line"/>
      <point x="228" y="1057" type="line"/>
      <point x="228" y="1187" type="line"/>
      <point x="134" y="1200" type="line"/>
      <point x="134" y="1298"/>
      <point x="155" y="1336"/>
      <point x="212" y="1432" type="curve"/>
      <point x="211" y="1432"/>
      <point x="145" y="1468"/>
      <point x="145" y="1469" type="curve"/>
      <point x="33" y="1374"/>
      <point x="31" y="1244"/>
      <point x="31" y="1103" type="curve" smooth="yes"/>
      <point x="31" y="1089" type="line"/>
    </contour>
  </outline>
</glyph>
<glyph name="quotedblleft" format="1">
  <advance width="630"/>
  <unicode hex="201C"/>
  <outline>
    <contour>
      <point x="19" y="995" type="line"/>
      <point x="241" y="995" type="line"/>
      <point x="241" y="1183" type="line"/>
      <point x="144" y="1197" type="line"/>
      <point x="147" y="1319"/>
      <point x="200" y="1387"/>
      <point x="225" y="1410" type="curve"/>
      <point x="165" y="1473" type="line"/>
      <point x="31" y="1379"/>
      <point x="19" y="1240"/>
      <point x="19" y="1084" type="curve" smooth="yes"/>
    </contour>
    <contour>
      <point x="341" y="995" type="line"/>
      <point x="563" y="995" type="line"/>
      <point x="563" y="1183" type="line"/>
      <point x="460" y="1196" type="line"/>
      <point x="463" y="1319"/>
      <point x="516" y="1387"/>
      <point x="541" y="1410" type="curve"/>
      <point x="481" y="1473" type="line"/>
      <point x="347" y="1378"/>
      <point x="346" y="1242"/>
      <point x="341" y="1084" type="curve"/>
    </contour>
  </outline>
</glyph>
<glyph name="quotedblright" format="1">
  <advance width="631"/>
  <unicode hex="201D"/>
  <outline>
    <contour>
      <point x="138" y="991" type="line"/>
      <point x="298" y="1104"/>
      <point x="275" y="1284"/>
      <point x="279" y="1464" type="curve"/>
      <point x="56" y="1464" type="line"/>
      <point x="56" y="1292" type="line" smooth="yes"/>
      <point x="56" y="1291"/>
      <point x="146" y="1273"/>
      <point x="146" y="1274" type="curve"/>
      <point x="143" y="1154"/>
      <point x="92" y="1077"/>
      <point x="66" y="1054" type="curve"/>
    </contour>
    <contour>
      <point x="453" y="991" type="line"/>
      <point x="612" y="1103"/>
      <point x="607" y="1285"/>
      <point x="612" y="1464" type="curve"/>
      <point x="390" y="1464" type="line"/>
      <point x="390" y="1292" type="line"/>
      <point x="471" y="1273" type="line"/>
      <point x="468" y="1152"/>
      <point x="416" y="1075"/>
      <point x="391" y="1054" type="curve"/>
    </contour>
  </outline>
</glyph>
<glyph name="quotedblbase" format="1">
  <advance width="744"/>
  <unicode hex="201E"/>
  <outline>
    <contour>
      <point x="159" y="-382" type="line"/>
      <point x="319" y="-269"/>
      <point x="316" y="-87"/>
      <point x="320" y="93" type="curve"/>
      <point x="82" y="93" type="line"/>
      <point x="82" y="-81" type="line"/>
      <point x="81" y="-82"/>
      <point x="167" y="-99"/>
      <point x="167" y="-99" type="curve"/>
      <point x="164" y="-219"/>
      <point x="113" y="-296"/>
      <point x="88" y="-319" type="curve"/>
    </contour>
    <contour>
      <point x="511" y="-382" type="line"/>
      <point x="671" y="-269"/>
      <point x="668" y="-87"/>
      <point x="672" y="93" type="curve"/>
      <point x="434" y="93" type="line"/>
      <point x="434" y="-81" type="line" smooth="yes"/>
      <point x="434" y="-82"/>
      <point x="519" y="-99"/>
      <point x="519" y="-99" type="curve"/>
      <point x="516" y="-219"/>
      <point x="465" y="-296"/>
      <point x="440" y="-319" type="curve"/>
    </contour>
  </outline>
</glyph>
<glyph name="guilsinglleft" format="1">
  <advance width="528"/>
  <unicode hex="2039"/>
  <outline>
    <contour>
      <point x="429" y="253" type="line"/>
      <point x="429" y="388" type="line"/>
      <point x="145" y="650" type="line"/>
      <point x="429" y="914" type="line"/>
      <point x="429" y="1048" type="line"/>
      <point x="52" y="744" type="line"/>
      <point x="52" y="557" type="line"/>
    </contour>
  </outline>
</glyph>
<glyph name="guilsinglright" format="1">
  <advance width="528"/>
  <unicode hex="203A"/>
  <outline>
    <contour>
      <point x="52" y="253" type="line"/>
      <point x="429" y="557" type="line"/>
      <point x="429" y="744" type="line"/>
      <point x="52" y="1048" type="line"/>
      <point x="52" y="914" type="line"/>
      <point x="336" y="650" type="line"/>
      <point x="52" y="388" type="line"/>
    </contour>
  </outline>
</glyph>
<glyph name="fraction" format="1">
  <advance width="1562"/>
  <unicode hex="2044"/>
  <outline>
    <contour>
      <point x="200" y="-14" type="line"/>
      <point x="1435" y="1415" type="line"/>
      <point x="1363" y="1478" type="line"/>
      <point x="127" y="49" type="line"/>
    </contour>
  </outline>
</glyph>
<glyph name="foursuperior" format="1">
  <advance width="1461"/>
  <unicode hex="2074"/>
  <outline>
    <contour>
      <point x="906" y="1030" type="line"/>
      <point x="906" y="1529" type="line"/>
      <point x="764" y="1530" type="line"/>
      <point x="364" y="951" type="line"/>
      <point x="364" y="951" type="line"/>
      <point x="764" y="951" type="line"/>
      <point x="764" y="777" type="line"/>
      <point x="906" y="777" type="line"/>
      <point x="906" y="951" type="line"/>
      <point x="1001" y="951" type="line"/>
      <point x="1001" y="1030" type="line"/>
    </contour>
    <contour>
      <point x="504" y="1030" type="line"/>
      <point x="764" y="1421" type="line"/>
      <point x="764" y="1030" type="line"/>
    </contour>
  </outline>
</glyph>
<glyph name="Euro" format="1">
  <advance width="1275"/>
  <unicode hex="20AC"/>
  <outline>
    <contour>
      <point x="-42" y="556" type="line"/>
      <point x="692" y="556" type="line"/>
      <point x="692" y="647" type="line"/>
      <point x="-42" y="647" type="line"/>
    </contour>
    <contour>
      <point x="-42" y="797" type="line"/>
      <point x="692" y="797" type="line"/>
      <point x="692" y="889" type="line"/>
      <point x="-42" y="889" type="line"/>
    </contour>
    <component base="C"/>
  </outline>
</glyph>
<glyph name="trademark" format="1">
  <advance width="1847"/>
  <unicode hex="2122"/>
  <outline>
    <contour>
      <point x="941" y="615" type="line"/>
      <point x="1042" y="615" type="line"/>
      <point x="1042" y="1285" type="line"/>
      <point x="1284" y="731" type="line"/>
      <point x="1368" y="731" type="line"/>
      <point x="1618" y="1282" type="line"/>
      <point x="1618" y="615" type="line"/>
      <point x="1715" y="615" type="line"/>
      <point x="1715" y="1463" type="line"/>
      <point x="1597" y="1463" type="line"/>
      <point x="1330" y="871" type="line"/>
      <point x="1067" y="1464" type="line"/>
      <point x="941" y="1464" type="line"/>
    </contour>
    <contour>
      <point x="387" y="615" type="line"/>
      <point x="494" y="615" type="line"/>
      <point x="494" y="1385" type="line"/>
      <point x="757" y="1385" type="line"/>
      <point x="757" y="1464" type="line"/>
      <point x="116" y="1464" type="line"/>
      <point x="116" y="1385" type="line"/>
      <point x="387" y="1385" type="line"/>
    </contour>
  </outline>
</glyph>
<glyph name="partialdiff" format="1">
  <advance width="1136"/>
  <unicode hex="2202"/>
  <outline>
    <contour>
      <point x="595" y="908" type="curve" smooth="yes"/>
      <point x="368.605" y="908"/>
      <point x="133" y="718.028"/>
      <point x="133" y="385" type="curve" smooth="yes"/>
      <point x="133" y="167"/>
      <point x="250" y="-24"/>
      <point x="508" y="-24" type="curve" smooth="yes"/>
      <point x="874.292" y="-24"/>
      <point x="1013" y="294.287"/>
      <point x="1013" y="689" type="curve" smooth="yes"/>
      <point x="1013" y="1061"/>
      <point x="863" y="1432"/>
      <point x="312" y="1432" type="curve"/>
      <point x="303" y="1343" type="line"/>
      <point x="762" y="1343"/>
      <point x="882" y="1006"/>
      <point x="887" y="772" type="curve"/>
      <point x="816" y="866"/>
      <point x="709" y="908"/>
    </contour>
    <contour>
      <point x="881" y="637" type="curve" smooth="yes"/>
      <point x="881" y="330.227"/>
      <point x="774.424" y="80"/>
      <point x="525" y="80" type="curve" smooth="yes"/>
      <point x="373" y="80"/>
      <point x="267" y="191"/>
      <point x="267" y="382" type="curve" smooth="yes"/>
      <point x="267" y="645.72"/>
      <point x="428.932" y="803"/>
      <point x="600" y="803" type="curve" smooth="yes"/>
      <point x="707" y="803"/>
      <point x="799" y="753"/>
      <point x="880" y="655" type="curve"/>
      <point x="881" y="651"/>
      <point x="881" y="645"/>
    </contour>
  </outline>
</glyph>
<glyph name="uni2206" format="1">
  <advance width="1278"/>
  <unicode hex="2206"/>
  <outline>
    <contour>
      <point x="65" y="0" type="line"/>
      <point x="1180" y="0" type="line"/>
      <point x="1180" y="85" type="line"/>
      <point x="698" y="1537" type="line"/>
      <point x="544" y="1537" type="line"/>
      <point x="65" y="85" type="line"/>
    </contour>
    <contour>
      <point x="203" y="125" type="line"/>
      <point x="577" y="1327" type="line"/>
      <point x="609" y="1445" type="line"/>
      <point x="643" y="1327" type="line"/>
      <point x="1018" y="125" type="line"/>
    </contour>
  </outline>
</glyph>
<glyph name="product" format="1">
  <advance width="1408"/>
  <unicode hex="220F"/>
  <outline>
    <contour>
      <point x="154" y="0" type="line"/>
      <point x="292" y="0" type="line"/>
      <point x="292" y="1357" type="line"/>
      <point x="1116" y="1357" type="line"/>
      <point x="1116" y="0" type="line"/>
      <point x="1255" y="0" type="line"/>
      <point x="1255" y="1464" type="line"/>
      <point x="154" y="1464" type="line"/>
    </contour>
  </outline>
</glyph>
<glyph name="minus" format="1">
  <advance width="1024"/>
  <unicode hex="2212"/>
  <outline>
    <contour>
      <point x="135" y="671" type="line"/>
      <point x="803" y="671" type="line"/>
      <point x="803" y="754" type="line"/>
      <point x="135" y="754" type="line"/>
    </contour>
  </outline>
</glyph>
<glyph name="infinity" format="1">
  <advance width="1631"/>
  <unicode hex="221E"/>
  <outline>
    <contour>
      <point x="1183" y="320" type="curve" smooth="yes"/>
      <point x="1449" y="320"/>
      <point x="1582" y="528"/>
      <point x="1582" y="736" type="curve" smooth="yes"/>
      <point x="1582" y="946"/>
      <point x="1447" y="1155"/>
      <point x="1180" y="1155" type="curve" smooth="yes"/>
      <point x="1016" y="1155"/>
      <point x="901" y="1067"/>
      <point x="836" y="895" type="curve"/>
      <point x="741" y="1076"/>
      <point x="609" y="1169"/>
      <point x="447" y="1169" type="curve" smooth="yes"/>
      <point x="190" y="1169"/>
      <point x="61" y="946"/>
      <point x="61" y="727" type="curve" smooth="yes"/>
      <point x="61" y="511"/>
      <point x="184" y="298"/>
      <point x="432" y="298" type="curve" smooth="yes"/>
      <point x="588" y="298"/>
      <point x="729" y="389"/>
      <point x="847" y="567" type="curve"/>
      <point x="929" y="403"/>
      <point x="1043" y="320"/>
    </contour>
    <contour>
      <point x="450" y="436" type="curve" smooth="yes"/>
      <point x="264" y="436"/>
      <point x="170" y="588"/>
      <point x="170" y="741" type="curve" smooth="yes"/>
      <point x="170" y="892"/>
      <point x="262" y="1041"/>
      <point x="451" y="1041" type="curve" smooth="yes"/>
      <point x="606" y="1041"/>
      <point x="727" y="910"/>
      <point x="806" y="655" type="curve"/>
      <point x="710" y="510"/>
      <point x="589" y="436"/>
    </contour>
    <contour>
      <point x="1187" y="450" type="curve" smooth="yes"/>
      <point x="1064" y="450"/>
      <point x="958" y="569"/>
      <point x="875" y="800" type="curve"/>
      <point x="955" y="949"/>
      <point x="1060" y="1026"/>
      <point x="1186" y="1026" type="curve" smooth="yes"/>
      <point x="1380" y="1026"/>
      <point x="1467" y="876"/>
      <point x="1467" y="738" type="curve" smooth="yes"/>
      <point x="1467" y="594"/>
      <point x="1374" y="450"/>
    </contour>
  </outline>
</glyph>
<glyph name="integral" format="1">
  <advance width="750"/>
  <unicode hex="222B"/>
  <outline>
    <contour>
      <point x="182" y="-201" type="curve" smooth="yes"/>
      <point x="356" y="-201"/>
      <point x="420" y="-85"/>
      <point x="444" y="131" type="curve" smooth="yes"/>
      <point x="552" y="1146" type="line" smooth="yes"/>
      <point x="569" y="1307"/>
      <point x="588" y="1371"/>
      <point x="681" y="1371" type="curve" smooth="yes"/>
      <point x="724" y="1371"/>
      <point x="757" y="1358"/>
      <point x="786" y="1344" type="curve"/>
      <point x="830" y="1428" type="line"/>
      <point x="804" y="1449"/>
      <point x="747" y="1474"/>
      <point x="678" y="1474" type="curve" smooth="yes"/>
      <point x="504" y="1474"/>
      <point x="440" y="1359"/>
      <point x="416" y="1143" type="curve" smooth="yes"/>
      <point x="308" y="127" type="line" smooth="yes"/>
      <point x="291" y="-34"/>
      <point x="272" y="-98"/>
      <point x="180" y="-98" type="curve" smooth="yes"/>
      <point x="137" y="-98"/>
      <point x="103" y="-85"/>
      <point x="74" y="-70" type="curve"/>
      <point x="30" y="-155" type="line"/>
      <point x="56" y="-176"/>
      <point x="113" y="-201"/>
    </contour>
  </outline>
</glyph>
<glyph name="lessequal" format="1">
  <advance width="1051"/>
  <unicode hex="2264"/>
  <outline>
    <contour>
      <point x="998" y="241" type="line"/>
      <point x="998" y="374" type="line"/>
      <point x="203" y="613" type="line"/>
      <point x="998" y="829" type="line"/>
      <point x="998" y="974" type="line"/>
      <point x="49" y="680" type="line"/>
      <point x="49" y="561" type="line"/>
    </contour>
    <contour>
      <point x="41" y="0" type="line"/>
      <point x="999" y="0" type="line"/>
      <point x="999" y="110" type="line"/>
      <point x="41" y="110" type="line"/>
    </contour>
  </outline>
</glyph>
<glyph name="lozenge" format="1">
  <advance width="1057"/>
  <unicode hex="25CA"/>
  <outline>
    <contour>
      <point x="453" y="0" type="line"/>
      <point x="592" y="0" type="line"/>
      <point x="1025" y="699" type="line"/>
      <point x="592" y="1398" type="line"/>
      <point x="453" y="1398" type="line"/>
      <point x="32" y="699" type="line"/>
    </contour>
    <contour>
      <point x="530" y="109" type="line"/>
      <point x="184" y="699" type="line"/>
      <point x="530" y="1289" type="line"/>
      <point x="879" y="699" type="line"/>
    </contour>
  </outline>
</glyph>
<glyph name="caron.alt" format="1">
  <advance width="600"/>
  <outline>
    <contour>
      <point x="300" y="1023" type="move" name="_top"/>
    </contour>
    <contour>
      <point x="263" y="1082" type="move" name="_caron.alt"/>
    </contour>
    <contour>
      <point x="500" y="1125" type="line"/>
      <point x="642" y="1216"/>
      <point x="642" y="1355"/>
      <point x="647" y="1513" type="curve"/>
      <point x="647" y="1598" type="line"/>
      <point x="427" y="1598" type="line"/>
      <point x="427" y="1408" type="line"/>
      <point x="521" y="1395" type="line"/>
      <point x="518" y="1274"/>
      <point x="466" y="1207"/>
      <point x="441" y="1187" type="curve"/>
    </contour>
  </outline>
</glyph>
